<svg aria-hidden="true" style="position: absolute; width: 0; height: 0; overflow: hidden;" version="1.1" xmlns="http://www.w3.org/2000/svg" xmlns:xlink="http://www.w3.org/1999/xlink">
<defs>
<symbol id="icon-adventure" viewBox="0 0 32 32">
<path d="M15.291 26.643c0.020 0.028 0.041 0.056 0.065 0.081s0.048 0.050 0.074 0.073c0.026 0.023 0.054 0.044 0.082 0.064 0.053 0.037 0.114 0.069 0.178 0.093l0.006 0.002c0.032 0.012 0.065 0.023 0.099 0.031s0.068 0.015 0.102 0.019c0.034 0.004 0.069 0.006 0.104 0.006s0.069-0.002 0.104-0.006c0.034-0.004 0.068-0.010 0.102-0.019 0.039-0.009 0.072-0.020 0.104-0.032l-0.005 0.002c0.033-0.012 0.064-0.026 0.095-0.042s0.061-0.034 0.089-0.053c0.028-0.020 0.056-0.041 0.082-0.064 0.052-0.046 0.097-0.096 0.136-0.152l0.002-0.003 6.885-10.032c4.251-5.957-0.281-14.583-7.594-14.448-7.313-0.133-11.845 8.49-7.594 14.448zM8.741 7.564c0.192-0.37 0.383-0.683 0.595-0.981l-0.017 0.025c0.228-0.323 0.458-0.605 0.707-0.871l-0.004 0.004c0.128-0.138 0.257-0.266 0.39-0.39l0.005-0.004c0.128-0.12 0.265-0.24 0.407-0.355l0.014-0.011c0.267-0.219 0.565-0.43 0.877-0.621l0.035-0.020c0.121-0.076 0.28-0.166 0.443-0.251l0.044-0.021c0.118-0.064 0.284-0.144 0.453-0.218l0.051-0.020c0.286-0.128 0.636-0.254 0.996-0.355l0.056-0.014c0.122-0.037 0.305-0.081 0.49-0.12l0.053-0.009c0.131-0.029 0.319-0.061 0.508-0.086l0.043-0.005c0.148-0.021 0.339-0.039 0.532-0.051l0.023-0.001c0.145-0.009 0.314-0.014 0.484-0.014 0.026 0 0.052 0 0.077 0l-0.004-0c6.51-0.119 10.545 7.558 6.76 12.862l-6.76 9.85-6.76-9.85c-0.088-0.123-0.188-0.276-0.284-0.432l-0.021-0.036c-0.074-0.12-0.165-0.279-0.25-0.442l-0.022-0.046c-0.148-0.281-0.296-0.62-0.421-0.97l-0.018-0.056c-0.045-0.118-0.101-0.296-0.152-0.476l-0.014-0.057c-0.036-0.121-0.080-0.304-0.119-0.489l-0.009-0.054c-0.067-0.318-0.117-0.698-0.141-1.084l-0.001-0.023c-0.009-0.142-0.014-0.308-0.014-0.475 0-0.029 0-0.059 0-0.088l-0 0.005c0.002-0.201 0.011-0.395 0.027-0.587l-0.002 0.029c0.033-0.413 0.092-0.79 0.175-1.158l-0.010 0.054c0.052-0.237 0.099-0.418 0.154-0.597l-0.015 0.056c0.069-0.236 0.129-0.412 0.195-0.586l-0.019 0.056c0.151-0.403 0.305-0.738 0.481-1.060l-0.021 0.043z"></path>
<path d="M16 28.158c-16.011 0.031-16.012 1.831 0 1.862 16.011-0.031 16.012-1.831 0-1.862z"></path>
<path d="M16 18.044c0.118-0 0.235-0.003 0.351-0.009l-0.016 0.001c0.131-0.006 0.247-0.015 0.361-0.027l-0.027 0.002c0.111-0.011 0.222-0.025 0.332-0.041 0.149-0.022 0.261-0.042 0.372-0.065l-0.042 0.007c0.153-0.030 0.263-0.055 0.372-0.084l-0.045 0.010c0.156-0.038 0.264-0.069 0.371-0.102l-0.048 0.013c0.157-0.047 0.263-0.083 0.368-0.121l-0.049 0.016c0.256-0.092 0.46-0.179 0.659-0.275l-0.041 0.018c0.14-0.066 0.238-0.116 0.335-0.168l-0.036 0.018c0.133-0.071 0.229-0.126 0.323-0.183l-0.031 0.017c0.218-0.132 0.4-0.255 0.575-0.386l-0.018 0.013c0.193-0.144 0.362-0.284 0.523-0.431l-0.006 0.005c0.167-0.152 0.322-0.307 0.469-0.469l0.005-0.006c0.142-0.156 0.281-0.325 0.412-0.501l0.013-0.018c0.119-0.158 0.241-0.34 0.355-0.528l0.017-0.030c0.097-0.158 0.202-0.351 0.298-0.551l0.018-0.041c0.031-0.061 0.077-0.162 0.12-0.264l0.016-0.042c0.043-0.103 0.083-0.208 0.121-0.313 0.022-0.055 0.058-0.161 0.092-0.268l0.014-0.050c0.032-0.107 0.062-0.215 0.090-0.323s0.052-0.218 0.074-0.327c0.083-0.4 0.131-0.861 0.132-1.333v-0.001c-0.375-9.071-13.286-9.068-13.659 0 0 0.112 0.003 0.224 0.009 0.335s0.014 0.223 0.025 0.335c0.026 0.259 0.061 0.485 0.106 0.708l-0.008-0.044c0.022 0.11 0.047 0.219 0.074 0.327s0.057 0.216 0.090 0.323c0.047 0.157 0.083 0.263 0.121 0.368l-0.016-0.049c0.053 0.15 0.094 0.254 0.137 0.356l-0.016-0.043c0.043 0.103 0.088 0.206 0.136 0.307 0.067 0.142 0.117 0.241 0.17 0.338l-0.019-0.038c0.070 0.132 0.125 0.227 0.182 0.321l-0.017-0.029c0.075 0.125 0.134 0.217 0.195 0.308l-0.016-0.025c0.2 0.297 0.403 0.556 0.623 0.798l-0.005-0.006c0.152 0.167 0.307 0.322 0.468 0.469l0.006 0.005c0.156 0.142 0.325 0.281 0.5 0.413l0.018 0.013c0.157 0.118 0.339 0.241 0.526 0.355l0.031 0.017c0.063 0.040 0.158 0.095 0.255 0.147l0.037 0.018c0.059 0.034 0.157 0.084 0.257 0.132l0.043 0.019c0.056 0.029 0.157 0.075 0.259 0.118l0.047 0.018c0.103 0.043 0.207 0.083 0.312 0.121s0.211 0.073 0.318 0.105c0.107 0.033 0.214 0.062 0.323 0.090s0.217 0.052 0.327 0.074c0.11 0.022 0.22 0.041 0.33 0.058s0.221 0.030 0.332 0.041c0.111 0.011 0.223 0.020 0.334 0.025 0.1 0.005 0.217 0.009 0.335 0.009h0zM10.787 12.711l1.113-1.925 1.471 1.069-2.313 2.409c-0.032-0.051-0.064-0.102-0.094-0.155l0.885-1.548zM17.741 11.114c0.005-0.025 3.131 3.263 3.136 3.258-0.125 0.192-0.244 0.356-0.371 0.513l0.008-0.011-2.322-0.402-1.877 2.115 0.476-4.218-0.952 0.313 0.23-3.323zM20.271 10.787l1.113 1.925-1.062-0.149 0.709 1.238-2.015-2.101zM16 5.382c0.101 0 0.202 0.003 0.303 0.009 0.331 0.018 0.64 0.061 0.94 0.128l-0.038-0.007c0.099 0.021 0.197 0.045 0.295 0.071s0.195 0.055 0.291 0.087c0.425 0.14 0.791 0.307 1.135 0.509l-0.028-0.015c0.199 0.116 0.365 0.225 0.525 0.342l-0.016-0.011c0.177 0.129 0.331 0.254 0.478 0.386l-0.005-0.005c0.075 0.068 0.149 0.137 0.22 0.209s0.142 0.145 0.209 0.22c0.068 0.075 0.134 0.152 0.198 0.231s0.126 0.159 0.186 0.24c0.060 0.082 0.117 0.165 0.173 0.25 0.041 0.060 0.093 0.145 0.144 0.23l0.015 0.028c0.036 0.059 0.084 0.146 0.131 0.235l0.015 0.032c0.031 0.056 0.075 0.146 0.117 0.237l0.015 0.037c0.069 0.147 0.143 0.334 0.208 0.526l0.012 0.040c0.021 0.057 0.051 0.154 0.078 0.252l0.009 0.039c0.027 0.098 0.051 0.196 0.072 0.295s0.041 0.198 0.057 0.298c0.016 0.1 0.030 0.2 0.041 0.301s0.020 0.202 0.026 0.303c0.006 0.102 0.010 0.221 0.010 0.342 0 0.093-0.002 0.186-0.007 0.279l0-0.013c-0.005 0.118-0.013 0.223-0.024 0.328l0.002-0.024-1.793-1.429-1.333 0.969-2.388-2.489c-0.127 0.114-0.244 0.231-0.354 0.354l-0.004 0.004-2.22 2.266-1.52-1.105-1.948 1.544c-0.026-0.207-0.040-0.447-0.040-0.69 0-0.081 0.002-0.162 0.005-0.243l-0 0.012c0.014-0.333 0.053-0.647 0.115-0.953l-0.007 0.038c0.020-0.1 0.043-0.2 0.068-0.3 0.062-0.241 0.124-0.436 0.197-0.627l-0.013 0.040c0.159-0.422 0.342-0.784 0.56-1.123l-0.014 0.023c0.123-0.192 0.24-0.355 0.365-0.512l-0.009 0.011c0.072-0.090 0.136-0.167 0.203-0.242l-0.006 0.006c0.072-0.081 0.14-0.154 0.211-0.225l-0.001 0.001c0.071-0.072 0.143-0.142 0.217-0.209l0.004-0.004c0.217-0.199 0.454-0.386 0.705-0.553l0.021-0.013c0.085-0.056 0.172-0.11 0.261-0.162 0.057-0.035 0.145-0.084 0.234-0.131l0.035-0.017c0.059-0.032 0.15-0.077 0.242-0.119l0.035-0.014c0.093-0.042 0.188-0.082 0.283-0.119s0.192-0.072 0.289-0.104c0.347-0.119 0.753-0.211 1.172-0.258l0.026-0.002c0.183-0.021 0.396-0.033 0.612-0.034h0.001z"></path>
<path  d="M16.141 6.444l0.408 0.008-0.327 0.256 0.119 0.392-0.343-0.233-0.334 0.234 0.114-0.4-0.326-0.247 0.414-0.014 0.133-0.387z"></path>
<path d="M16.001 6.241l0.096 0.265 0.274 0.005-0.221 0.174 0.080 0.264-0.233-0.158-0.225 0.158 0.077-0.271-0.219-0.166 0.281-0.010z"></path>
<path  d="M14.415 6.739l0.382-0.142-0.211 0.358 0.253 0.321-0.404-0.091-0.226 0.34-0.038-0.414-0.393-0.111 0.381-0.165-0.016-0.409z"></path>
<path d="M14.21 6.601l0.186 0.212 0.257-0.096-0.143 0.243 0.17 0.216-0.274-0.062-0.153 0.229-0.026-0.281-0.264-0.075 0.258-0.112z"></path>
<path  d="M12.875 7.625l0.312-0.264-0.078 0.409 0.346 0.217-0.411 0.051-0.098 0.397-0.176-0.377-0.407 0.029 0.303-0.284-0.153-0.379z"></path>
<path  d="M12.637 7.564l0.246 0.136 0.21-0.177-0.053 0.277 0.233 0.146-0.279 0.035-0.066 0.268-0.119-0.256-0.274 0.019 0.205-0.193z"></path>
<path  d="M11.811 9.016l0.217-0.347 0.050 0.413 0.395 0.1-0.376 0.175 0.028 0.408-0.282-0.304-0.378 0.152 0.201-0.363-0.262-0.314z"></path>
<path  d="M11.565 9.032l0.276 0.054 0.146-0.233 0.034 0.28 0.266 0.067-0.255 0.119 0.019 0.275-0.191-0.207-0.255 0.103 0.137-0.247z"></path>
<path  d="M17.588 6.739l-0.383-0.142 0.211 0.358-0.253 0.321 0.404-0.091 0.226 0.34 0.039-0.414 0.393-0.111-0.381-0.165 0.016-0.409z"></path>
<path  d="M17.792 6.601l-0.185 0.212-0.258-0.096 0.143 0.243-0.17 0.216 0.274-0.062 0.152 0.229 0.026-0.281 0.264-0.075-0.258-0.112z"></path>
<path  d="M19.127 7.625l-0.312-0.264 0.078 0.409-0.346 0.217 0.411 0.051 0.098 0.397 0.176-0.377 0.407 0.029-0.303-0.284 0.153-0.379z"></path>
<path  d="M19.366 7.564l-0.246 0.136-0.21-0.177 0.053 0.277-0.233 0.146 0.279 0.035 0.066 0.268 0.119-0.256 0.274 0.019-0.205-0.193z"></path>
<path d="M20.192 9.016l-0.217-0.347-0.050 0.413-0.396 0.1 0.376 0.175-0.028 0.408 0.282-0.304 0.379 0.152-0.202-0.363 0.262-0.314z"></path>
<path d="M20.438 9.032l-0.276 0.054-0.146-0.233-0.034 0.28-0.266 0.067 0.255 0.119-0.019 0.275 0.191-0.207 0.255 0.103-0.137-0.247z"></path>
</symbol>
<symbol id="icon-nature" viewBox="0 0 32 32">
<path fill="#000" style="fill: var(--color1, #000)" d="M14.478 21.666h-14.036c-0.243 0-0.44-0.197-0.44-0.44s0.197-0.44 0.44-0.44h14.036c0.243 0 0.44 0.197 0.44 0.44v0c-0 0.243-0.197 0.44-0.44 0.44v0zM18.677 21.666h-2.303c-0.243 0-0.44-0.197-0.44-0.44s0.197-0.44 0.44-0.44h2.303c0.243 0 0.44 0.197 0.44 0.44s-0.197 0.44-0.44 0.44v0zM5.47 18.735c-2.82 0-5.115-2.295-5.115-5.115s2.295-5.115 5.115-5.115c2.82 0 5.115 2.295 5.115 5.115s-2.294 5.115-5.115 5.115zM5.47 9.384c-2.336 0-4.236 1.9-4.236 4.236s1.9 4.236 4.236 4.236c2.336 0 4.236-1.9 4.236-4.236s-1.9-4.236-4.236-4.236z"></path>
<path fill="#000" style="fill: var(--color1, #000)" d="M5.47 21.666c-0 0-0 0-0 0-0.243 0-0.439-0.197-0.439-0.439 0-0 0-0 0-0v0-8.22c0-0.243 0.197-0.44 0.44-0.44s0.44 0.197 0.44 0.44v8.22c0 0 0 0 0 0 0 0.243-0.197 0.44-0.44 0.44v0z"></path>
<path fill="#000" style="fill: var(--color1, #000)" d="M5.47 16.83c-0 0-0 0-0.001 0-0.243 0-0.439-0.197-0.439-0.439 0-0.122 0.049-0.232 0.129-0.311v0l1.596-1.595c0.080-0.080 0.19-0.129 0.311-0.129s0.231 0.049 0.311 0.129v0c0.080 0.080 0.129 0.19 0.129 0.311s-0.049 0.231-0.129 0.311v0l-1.596 1.595c-0.079 0.079-0.189 0.129-0.31 0.129-0 0-0.001 0-0.001 0h0zM5.47 15.235c-0.112 0-0.225-0.043-0.311-0.129l-1.040-1.040c-0.080-0.080-0.129-0.19-0.129-0.311s0.049-0.231 0.129-0.311v0c0.080-0.080 0.19-0.129 0.311-0.129s0.231 0.049 0.311 0.129v0l1.040 1.040c0.080 0.080 0.129 0.19 0.129 0.311s-0.049 0.231-0.129 0.311v0c-0.080 0.079-0.19 0.129-0.311 0.129v0zM13.239 18.735c-1.708 0-3.296-0.848-4.249-2.268-0.047-0.069-0.075-0.154-0.075-0.245 0-0.152 0.077-0.285 0.193-0.364l0.002-0.001c0.069-0.047 0.154-0.075 0.245-0.075 0.152 0 0.285 0.077 0.364 0.193l0.001 0.002c0.789 1.176 2.104 1.878 3.518 1.878 2.335 0 4.235-1.9 4.235-4.235 0-2.562-2.047-8.201-4.235-8.201-1.504 0-2.993 2.771-3.739 5.346-0.055 0.185-0.224 0.317-0.423 0.317-0.043 0-0.086-0.006-0.125-0.018l0.003 0.001c-0.185-0.055-0.317-0.223-0.317-0.422 0-0.044 0.006-0.086 0.018-0.126l-0.001 0.003c0.838-2.891 2.483-5.982 4.584-5.982 2.955 0 5.115 6.372 5.115 9.081-0.001 2.821-2.295 5.116-5.116 5.116z"></path>
<path fill="#000" style="fill: var(--color1, #000)" d="M13.238 21.666c-0 0-0 0-0 0-0.243 0-0.439-0.197-0.439-0.439 0-0 0-0 0-0v0-12.121c0-0.243 0.197-0.44 0.44-0.44s0.44 0.197 0.44 0.44v12.121c0 0 0 0 0 0 0 0.243-0.197 0.44-0.44 0.44v0z"></path>
<path fill="#000" style="fill: var(--color1, #000)" d="M13.145 15.791c-0.112 0-0.225-0.043-0.311-0.129l-1.596-1.596c-0.080-0.080-0.129-0.19-0.129-0.311s0.049-0.231 0.129-0.311v0c0.080-0.080 0.19-0.129 0.311-0.129s0.232 0.049 0.311 0.129v0l1.595 1.596c0.080 0.080 0.129 0.19 0.129 0.311s-0.049 0.231-0.129 0.311v0c-0.079 0.079-0.189 0.129-0.31 0.129-0 0-0.001 0-0.001 0h0zM13.274 13.116c-0 0-0.001 0-0.001 0-0.121 0-0.231-0.049-0.31-0.129v0c-0.080-0.080-0.129-0.19-0.129-0.311s0.049-0.231 0.129-0.311v0l1.039-1.040c0.079-0.078 0.189-0.127 0.309-0.127 0.243 0 0.44 0.197 0.44 0.44 0 0.12-0.048 0.229-0.127 0.309l-1.040 1.039c-0.079 0.079-0.189 0.129-0.31 0.129-0 0-0.001 0-0.001 0h0zM10.711 27.2c-0.012 0-0.024-0-0.036-0.001-7.169-0.571-7.169-1.673-7.169-2.088 0-0.575 0.503-1.235 4.233-1.77 2.507-0.36 5.835-0.557 9.372-0.557 0.88 0 1.78 0.013 2.674 0.039 0.237 0.007 0.427 0.201 0.427 0.439 0 0.005-0 0.009-0 0.014l0-0.001c-0.007 0.243-0.206 0.432-0.452 0.427-0.787-0.024-1.715-0.038-2.647-0.039h-0.002c-7.332 0-12.020 0.832-12.683 1.445 0.322 0.265 1.872 0.86 6.317 1.214 0.227 0.019 0.405 0.208 0.405 0.439 0 0.012-0.001 0.024-0.002 0.036l0-0.002c-0.018 0.227-0.207 0.405-0.438 0.405h-0zM25.41 27.014c-0.225-0-0.41-0.169-0.436-0.387l-0-0.002c-0.002-0.015-0.003-0.033-0.003-0.050 0-0.225 0.169-0.411 0.387-0.437l0.002-0c3.307-0.382 4.203-0.861 4.424-1.028-0.179-0.138-0.805-0.478-2.878-0.814-0.213-0.031-0.378-0.213-0.378-0.435 0-0 0-0.001 0-0.001 0-0.242 0.196-0.438 0.438-0.439v0l0.073 0.006c3.24 0.524 3.677 1.145 3.677 1.684 0 0.387 0 1.292-5.254 1.901-0.015 0.002-0.033 0.003-0.051 0.003-0 0-0 0-0 0v0z"></path>
<path fill="#000" style="fill: var(--color1, #000)" d="M18.445 28.955c-2.307 0-4.479-0.129-6.115-0.364-2.536-0.363-2.885-0.842-2.885-1.304 0-0.534 0.608-0.787 1.138-0.948 0.038-0.012 0.082-0.019 0.128-0.019 0.197 0 0.364 0.13 0.419 0.309l0.001 0.003c0.012 0.038 0.019 0.082 0.019 0.128 0 0.197-0.13 0.364-0.309 0.42l-0.003 0.001c-0.131 0.039-0.235 0.076-0.337 0.118l0.023-0.009c0.81 0.33 3.438 0.784 7.92 0.784 4.483 0 7.111-0.454 7.919-0.785-0.184-0.076-0.502-0.178-1.039-0.285-0.203-0.042-0.354-0.219-0.354-0.431 0-0.031 0.003-0.060 0.009-0.089l-0 0.003c0.041-0.203 0.219-0.354 0.431-0.354 0.031 0 0.061 0.003 0.089 0.009l-0.003-0c1.381 0.275 1.945 0.607 1.945 1.144 0 0.462-0.349 0.941-2.884 1.304-1.636 0.235-3.807 0.364-6.114 0.364zM26.605 27.422h0.002z"></path>
<path fill="#000" style="fill: var(--color1, #000)" d="M26.988 24.3h-0.016c-0.243 0-0.442-0.197-0.442-0.44 0-0.239 0.187-0.433 0.424-0.44 0.748-0.054 1.287-0.127 1.664-0.198-0.758-0.14-2.062-0.273-3.875-0.273-2.6 0-4.155 0.273-4.552 0.449-0.038 0.112-0.116 0.202-0.217 0.254l-0.002 0.001c-0.058 0.030-0.126 0.047-0.198 0.047-0.171 0-0.319-0.097-0.392-0.239l-0.001-0.002c-0.035-0.069-0.056-0.15-0.056-0.236 0-0 0-0.001 0-0.001v0c0-0.562 0.734-0.781 1.835-0.939 0.961-0.137 2.233-0.213 3.583-0.213s2.622 0.076 3.582 0.213c1.101 0.157 1.834 0.378 1.834 0.939 0 0.412-0.244 0.868-3.156 1.077zM26.851 8.68c-0 0-0.001 0-0.001 0-0.104 0-0.2-0.037-0.275-0.098l0.001 0.001-5.614-4.521c-0.042-0.034-0.096-0.054-0.155-0.054-0.041 0-0.080 0.010-0.114 0.028l0.001-0.001-3.611 1.849c-0.058 0.030-0.127 0.048-0.2 0.048-0.17 0-0.317-0.096-0.39-0.237l-0.001-0.002c-0.031-0.058-0.048-0.127-0.048-0.2 0-0.17 0.096-0.317 0.237-0.39l0.002-0.001 3.611-1.849c0.149-0.078 0.326-0.124 0.513-0.124 0.268 0 0.515 0.094 0.709 0.25l-0.002-0.002 5.614 4.522c0.1 0.081 0.164 0.204 0.164 0.342 0 0.105-0.037 0.201-0.098 0.276l0.001-0.001c-0.081 0.101-0.205 0.164-0.343 0.164-0 0-0 0-0 0v0z"></path>
<path fill="#000" style="fill: var(--color1, #000)" d="M23.113 10.512c-0 0-0 0-0 0-0.183 0-0.34-0.112-0.406-0.271l-0.001-0.003c-0.020-0.049-0.032-0.106-0.032-0.166 0-0.183 0.112-0.34 0.272-0.407l0.003-0.001 5.641-2.292c0.096-0.040 0.208-0.063 0.325-0.063 0.196 0 0.377 0.065 0.522 0.175l-0.002-0.002 2.337 1.761c0.107 0.081 0.175 0.208 0.175 0.351 0 0.1-0.033 0.192-0.089 0.266l0.001-0.001c-0.081 0.107-0.208 0.175-0.351 0.175-0.1 0-0.192-0.033-0.266-0.089l0.001 0.001-2.337-1.762-5.625 2.294c-0.055 0.023-0.111 0.033-0.166 0.033z"></path>
<path fill="#fade3f" style="fill: var(--color4, #fade3f)" d="M7.136 4.316c0 0.948-0.657 1.701-1.605 1.701s-1.744-0.694-1.744-1.642c0-0.948 0.719-1.642 1.667-1.642 1.024 0 1.682 0.636 1.682 1.584zM5.604 0.942c-0.052-0.080-0.269-0.088-0.328 0.003-0.060 0.094-0.006 1.383 0.164 1.383 0.185 0 0.208-1.316 0.164-1.386zM3.869 1.331c-0.085-0.044-0.277 0.058-0.282 0.166-0.006 0.111 0.686 1.201 0.833 1.116 0.161-0.093-0.478-1.244-0.551-1.282zM2.56 2.536c-0.095 0.005-0.211 0.188-0.161 0.285 0.051 0.099 1.195 0.697 1.28 0.55 0.093-0.16-1.036-0.839-1.118-0.834zM2.030 4.233c-0.080 0.052-0.088 0.268 0.003 0.327 0.094 0.061 1.383 0.006 1.383-0.164 0-0.186-1.316-0.208-1.386-0.164zM2.419 5.968c-0.044 0.085 0.058 0.277 0.166 0.282 0.111 0.006 1.201-0.686 1.116-0.833-0.093-0.16-1.244 0.478-1.282 0.551zM3.623 7.276c0.005 0.095 0.188 0.211 0.285 0.161 0.099-0.051 0.696-1.195 0.55-1.28-0.161-0.093-0.839 1.036-0.835 1.118zM5.32 7.806c0.052 0.080 0.269 0.088 0.327-0.003 0.061-0.094 0.006-1.383-0.164-1.383-0.185 0-0.208 1.316-0.164 1.386zM7.055 7.417c0.085 0.044 0.277-0.058 0.282-0.166 0.006-0.111-0.686-1.201-0.833-1.116-0.161 0.093 0.478 1.244 0.551 1.282zM8.363 6.213c0.095-0.005 0.211-0.188 0.161-0.285-0.051-0.099-1.195-0.697-1.28-0.55-0.093 0.161 1.036 0.839 1.118 0.834zM8.894 4.516c0.080-0.052 0.088-0.268-0.003-0.327-0.094-0.060-1.383-0.006-1.383 0.164 0 0.185 1.317 0.208 1.386 0.163zM8.505 2.781c0.044-0.085-0.058-0.277-0.166-0.282-0.111-0.006-1.201 0.686-1.116 0.833 0.093 0.161 1.244-0.478 1.282-0.551zM7.301 1.473c-0.005-0.095-0.189-0.211-0.285-0.161-0.099 0.051-0.697 1.195-0.55 1.28 0.161 0.093 0.839-1.036 0.835-1.118z"></path>
</symbol>
<symbol id="icon-compass" viewBox="0 0 32 32">
<path fill="#27aae1" style="fill: var(--color5, #27aae1)" d="M11.68 15.852c0-1.144 0.331-2.21 0.903-3.108l0.21 0.281 1.062 0.393-0.272-1.099-0.394-0.369c1.062-1.167 2.593-1.9 4.296-1.9 0.001 0 0.002 0 0.003 0 0.514 0 1.013 0.067 1.488 0.192l-0.041-0.009c-0.539-0.27-1.165-0.469-1.825-0.566l-0.034-0.004-0.681-7.675-0.677 7.63c-1.329 0.1-2.541 0.614-3.51 1.415l-3.003-2.812 2.47 3.307c-0.976 1.018-1.61 2.366-1.72 3.859l-7.532 0.668h9.261c-0.002-0.060-0.004-0.131-0.004-0.202v-0.001z"></path>
<path fill="#2b3990" style="fill: var(--color6, #2b3990)" d="M17.486 21.655c-0.212 0-0.422-0.012-0.629-0.034l-0.003-0.005c-0.008 0.001-0.017 0.001-0.025 0.002-1.36-0.153-2.578-0.776-3.488-1.702l0.241-0.226 0.272-1.099-1.062 0.393-0.103 0.138c-0.601-0.879-0.966-1.931-1.006-3.067h-9.26l7.576 0.672c0.195 1.393 0.85 2.639 1.806 3.58l-2.599 3.481 3.179-2.976c0.979 0.752 2.186 1.221 3.5 1.285l-0.078 0.147 0.69 7.777 0.69-7.777-0.107-0.203c0.692-0.1 1.317-0.3 1.892-0.586l-0.036 0.016c-0.434 0.116-0.931 0.183-1.445 0.183-0.002 0-0.004 0-0.005 0h0z"></path>
<path fill="#27aae1" style="fill: var(--color5, #27aae1)" d="M21.175 15.852c0-1.144-0.331-2.21-0.903-3.108l-0.21 0.281-1.062 0.393 0.272-1.099 0.394-0.369c-1.062-1.167-2.593-1.9-4.296-1.9-0.001 0-0.002 0-0.003 0-0.514 0-1.013 0.067-1.488 0.192l0.041-0.009c0.539-0.27 1.165-0.47 1.825-0.566l0.034-0.004 0.681-7.675 0.677 7.63c1.329 0.1 2.541 0.614 3.509 1.415l3.003-2.812-2.47 3.307c0.976 1.018 1.61 2.366 1.72 3.859l7.532 0.668h-9.261c0.003-0.067 0.004-0.135 0.004-0.203z"></path>
<path fill="#2b3990" style="fill: var(--color6, #2b3990)" d="M15.369 21.655c0.212 0 0.422-0.012 0.629-0.034l0.003-0.005c0.008 0.001 0.017 0.001 0.025 0.002 1.36-0.153 2.578-0.776 3.488-1.702l-0.241-0.226-0.272-1.099 1.062 0.393 0.104 0.138c0.596-0.86 0.966-1.917 1.005-3.057l0-0.010h9.26l-7.576 0.672c-0.195 1.393-0.85 2.639-1.806 3.58l2.599 3.481-3.179-2.976c-0.979 0.752-2.186 1.221-3.501 1.285l0.078 0.147-0.69 7.777-0.69-7.777 0.107-0.203c-0.692-0.1-1.317-0.3-1.892-0.586l0.036 0.016c0.434 0.116 0.931 0.183 1.445 0.183 0.002 0 0.004 0 0.005 0h-0z"></path>
<path fill="#000" style="fill: var(--color1, #000)" d="M15.975 2.278h0.356v-0.135l-0.356-0.047v-1.653l1.368 1.859h0.108v-2.117l0.289-0.043v-0.136h-0.815v0.136l0.356 0.045v1.523l-1.239-1.703h-0.509v0.136l0.241 0.030 0.030 0.040v1.889l-0.289 0.041v0.135h0.458z"></path>
<path fill="#000" style="fill: var(--color1, #000)" d="M16.486 30.661l-0.132-0.051c-0.248-0.095-0.387-0.22-0.387-0.434 0-0.254 0.2-0.387 0.465-0.387 0.105 0 0.192 0.020 0.279 0.069l0.071 0.382h0.204l0.020-0.441c-0.146-0.108-0.326-0.18-0.554-0.18-0.431 0-0.76 0.237-0.76 0.627 0 0.346 0.238 0.543 0.584 0.678l0.129 0.051c0.295 0.115 0.427 0.214 0.427 0.434 0 0.264-0.214 0.414-0.536 0.414-0.148 0-0.249-0.028-0.357-0.089l-0.067-0.397h-0.204l-0.020 0.475c0.156 0.099 0.404 0.18 0.659 0.18 0.465 0 0.801-0.244 0.801-0.644 0-0.319-0.173-0.516-0.622-0.689z"></path>
<path fill="#000" style="fill: var(--color1, #000)" d="M3.17 14.765h-0.367v0.135l0.317 0.045-0.437 1.58-0.511-1.583 0.346-0.042v-0.135h-0.916v0.135l0.345 0.041-0.523 1.568-0.423-1.57 0.316-0.039v-0.135h-0.917v0.135l0.286 0.033 0.613 2.127h0.132l0.558-1.77 0.596 1.77h0.136l0.57-2.119 0.285-0.042v-0.135h-0.407z"></path>
<path fill="#000" style="fill: var(--color1, #000)" d="M31.443 16.433l-0.076 0.434h-0.879c-0.006-0.292-0.006-0.589-0.006-0.913h0.513l0.044 0.322h0.153v-0.804h-0.153l-0.046 0.326h-0.51c0-0.292 0-0.581 0.006-0.865h0.811l0.076 0.434h0.19l-0.024-0.603h-1.687v0.135l0.317 0.037c0.006 0.293 0.006 0.587 0.006 0.879v0.17c0 0.297 0 0.591-0.006 0.879l-0.317 0.036v0.136h1.756l0.023-0.603h-0.19z"></path>
<path fill="#000" style="fill: var(--color1, #000)" d="M25.427 16.311l-6.487 0.912-0.793-1.051c0.003-0.020 0.005-0.040 0.006-0.060h8.696zM17.095 24.738l0.416-2.951c1.067-0.192 2.036-0.672 2.823-1.356l1.86 1.4c0.001 0.001 0.002 0.002 0.003 0.003 0.006 0.005 0.014 0.009 0.021 0.012l0.001 0c0.002 0.001 0.004 0.002 0.006 0.002 0.001 0 0.002 0.001 0.003 0.001 0.003 0.001 0.006 0.002 0.009 0.002 0.004 0.001 0.009 0.001 0.013 0.001 0 0 0.001 0 0.001 0h-0c0 0 0.001 0 0.001 0 0.005 0 0.010-0.001 0.015-0.002l-0 0c0.006-0.001 0.011-0.002 0.015-0.004l-0 0s0 0 0.001-0c0.011-0.004 0.020-0.009 0.028-0.016l-0 0c0.003-0.003 0.006-0.006 0.009-0.009l0-0c0.007-0.008 0.013-0.017 0.016-0.028l0-0.001c0.002-0.004 0.003-0.010 0.004-0.015l0-0c0.001-0.005 0.002-0.010 0.002-0.016s-0-0.010-0.001-0.014l0 0c-0-0.004-0.001-0.007-0.002-0.010l0 0.001c-0.001-0.001-0.001-0.001-0.001-0.002-0-0.002-0.001-0.003-0.002-0.005s-0.002-0.006-0.003-0.008c-0.001-0.002-0.001-0.003-0.002-0.005-0.002-0.004-0.004-0.007-0.006-0.010-0.001-0.001-0.001-0.001-0.001-0.001l-0.002-0.002-1.402-1.859c0.684-0.786 1.164-1.753 1.357-2.82l2.954-0.416c-0.312 4.339-3.792 7.816-8.135 8.127zM20.26 20.376c-0.765 0.66-1.703 1.125-2.736 1.317l0.43-3.052zM19.127 17.469l3.055-0.429c-0.192 1.032-0.657 1.969-1.318 2.733zM16.894 17.618c0.273-0.074 0.508-0.205 0.703-0.381l-0.001 0.001 3.681 3.678-3.541-2.664zM16.324 26.357l-0.2-1.422-0.026-0.181-0.412-2.923-0.013-0.093-0.463-3.283 1.053-0.792c0.020 0.002 0.040 0.004 0.060 0.006zM7.688 16.611l2.955 0.416c0.192 1.066 0.672 2.034 1.357 2.82l-1.404 1.862c-0.001 0.001-0.001 0.002-0.002 0.003-0.002 0.003-0.004 0.007-0.006 0.010s-0.004 0.007-0.005 0.011l-0 0.001c-0.001 0.001-0.001 0.003-0.001 0.004-0.001 0.004-0.002 0.007-0.003 0.011v0.001c-0.001 0.004-0.001 0.008-0.001 0.013v0.001c0 0.005 0.001 0.010 0.002 0.015s0.002 0.011 0.004 0.015l-0-0c0 0 0 0 0 0.001 0.003 0.010 0.009 0.019 0.016 0.027 0.003 0.003 0.006 0.006 0.009 0.009 0.004 0.004 0.009 0.007 0.014 0.010l0 0.001c0.004 0.002 0.009 0.005 0.014 0.006l0.001 0c0.004 0.002 0.009 0.003 0.014 0.004l0 0c0.006 0.001 0.011 0.002 0.016 0.002 0 0 0 0 0 0 0.005 0 0.010-0.001 0.015-0.002l-0 0c0.002-0 0.005-0.001 0.008-0.002 0.001-0 0.002-0 0.004-0.001s0.004-0.001 0.006-0.002l-0 0c0.004-0.002 0.008-0.003 0.012-0.006l-0 0c0.004-0.002 0.008-0.005 0.011-0.007l-0 0 0.004-0.003 1.86-1.4c0.787 0.684 1.755 1.163 2.823 1.356l0.416 2.951c-4.343-0.312-7.824-3.788-8.136-8.127zM6.068 15.841l7.909-1.112 0.793 1.051c-0.002 0.020-0.004 0.041-0.006 0.061zM15.823 7.213l-0.416 2.951c-1.068 0.192-2.036 0.672-2.823 1.356l-1.86-1.4c-0.001-0.001-0.002-0.002-0.004-0.003-0.004-0.003-0.008-0.005-0.012-0.007l-0-0h-0c-0.005-0.003-0.010-0.005-0.015-0.007l-0-0c-0.004-0.001-0.008-0.002-0.011-0.003-0.005-0.001-0.010-0.001-0.014-0.001s-0.010 0-0.015 0.001c-0.006 0.001-0.011 0.002-0.016 0.004l0-0c-0 0-0 0-0.001 0-0.011 0.004-0.020 0.009-0.027 0.016l0-0c-0.010 0.008-0.018 0.019-0.023 0.030l-0 0.001c-0.002 0.003-0.003 0.007-0.004 0.011l-0 0c-0.001 0.003-0.002 0.006-0.002 0.010v0c-0.001 0.005-0.002 0.010-0.002 0.016v0c0 0.005 0.001 0.009 0.001 0.014v0.001c0.001 0.003 0.001 0.007 0.003 0.011 0.002 0.006 0.004 0.011 0.007 0.016l-0-0c0.002 0.003 0.003 0.007 0.006 0.010l0.002 0.003 1.404 1.862c-0.684 0.785-1.165 1.754-1.357 2.82l-2.955 0.416c0.312-4.339 3.792-7.816 8.136-8.128zM12.658 11.576c0.765-0.66 1.703-1.125 2.736-1.317l-0.43 3.052zM13.791 14.483l-3.055 0.43c0.192-1.032 0.657-1.969 1.318-2.733zM16.024 14.334c-0.258 0.070-0.481 0.191-0.669 0.352l0.002-0.002c-0.012 0.009-0.023 0.019-0.034 0.030l-0.368-0.367v-0l-0.023-0.023-3.291-3.287 3.541 2.665zM16.594 5.595l0.201 1.422 0.025 0.181 0.412 2.923 0.013 0.093 0.462 3.283-1.053 0.792c-0.020-0.002-0.040-0.004-0.061-0.006zM20.864 12.179c0.661 0.764 1.127 1.701 1.319 2.734l-3.055-0.43zM17.524 10.259c1.033 0.192 1.971 0.657 2.736 1.317l-2.306 1.735zM18.103 15.542c-0.074-0.272-0.205-0.508-0.381-0.702l0.001 0.001 3.683-3.679-2.668 3.539zM14.964 18.641l0.43 3.052c-1.033-0.191-1.971-0.656-2.736-1.317zM12.054 19.773c-0.661-0.764-1.126-1.701-1.318-2.733l3.055 0.429zM12.122 19.982l0.055-0.073 2.639-3.499c0.074 0.272 0.205 0.508 0.381 0.703l-0.001-0.001-0.391 0.39-0.096 0.097h-0l-3.195 3.192zM16.594 17.398c-0.015 0.001-0.030 0.003-0.045 0.003-0.029 0.002-0.059 0.003-0.089 0.003h-0.002c-0.030 0-0.060-0.001-0.089-0.003-0.018-0.001-0.034-0.002-0.049-0.004l0.004 0c-0.002 0-0.005 0-0.007-0.001-0.296-0.030-0.56-0.146-0.771-0.323l0.002 0.002c-0.011-0.009-0.023-0.019-0.034-0.029h-0c-0.023-0.021-0.045-0.041-0.065-0.062l0 0c-0.031-0.031-0.061-0.064-0.089-0.097l-0.002-0.002v-0c-0.175-0.209-0.291-0.473-0.321-0.762l-0.001-0.006c0-0.002-0-0.004-0-0.006-0.001-0.011-0.002-0.027-0.003-0.043l-0-0.003c-0.002-0.029-0.003-0.058-0.003-0.088v-0.003c0-0.030 0.001-0.059 0.003-0.088 0.001-0.015 0.002-0.030 0.003-0.045 0-0.002 0-0.005 0-0.007 0.030-0.295 0.146-0.559 0.323-0.771l-0.002 0.002c0.010-0.012 0.019-0.023 0.030-0.034v-0c0.020-0.022 0.040-0.044 0.062-0.065s0.043-0.042 0.065-0.062c0.011-0.010 0.023-0.020 0.035-0.029 0.209-0.175 0.473-0.291 0.762-0.32l0.006-0.001c0.002 0 0.005-0.001 0.007-0.001 0.015-0.001 0.030-0.003 0.045-0.003 0.029-0.002 0.059-0.003 0.089-0.003h0.003c0.030 0 0.059 0.001 0.088 0.003 0.015 0.001 0.030 0.002 0.045 0.003 0.002 0 0.005 0 0.007 0.001 0.296 0.030 0.56 0.146 0.771 0.323l-0.002-0.002c0.012 0.010 0.023 0.019 0.034 0.029v0c0.023 0.020 0.045 0.041 0.066 0.062s0.042 0.043 0.061 0.065v0c0.192 0.215 0.319 0.491 0.35 0.796l0 0.006c0 0.002 0 0.004 0 0.007 0.002 0.015 0.003 0.030 0.003 0.045 0.003 0.029 0.003 0.059 0.003 0.088v0.003c0 0.030-0.001 0.059-0.003 0.088-0.001 0.015-0.002 0.030-0.003 0.045 0 0.002-0 0.005-0 0.006-0.032 0.311-0.159 0.587-0.352 0.804l0.001-0.001v0c-0.020 0.022-0.040 0.044-0.061 0.065s-0.043 0.042-0.066 0.062h-0c-0.011 0.010-0.023 0.020-0.034 0.029-0.209 0.175-0.473 0.291-0.763 0.321l-0.006 0c-0.002 0.001-0.004 0.001-0.007 0.001zM25.23 15.341l-2.954-0.416c-0.192-1.067-0.673-2.034-1.357-2.82l1.402-1.859c0.001-0.001 0.001-0.002 0.003-0.003 0.002-0.003 0.004-0.006 0.006-0.010 0.001-0.001 0.002-0.003 0.002-0.005l0-0c0.001-0.002 0.003-0.005 0.003-0.007l0-0c0.001-0.002 0.001-0.003 0.002-0.005 0-0 0-0.001 0.001-0.002 0.001-0.003 0.001-0.006 0.002-0.009l0-0c0.001-0.004 0.001-0.009 0.001-0.014v-0c-0-0.006-0.001-0.011-0.002-0.016l0 0.001c-0.001-0.006-0.002-0.011-0.004-0.016l0 0.001c-0.004-0.011-0.010-0.020-0.017-0.028l0 0c-0.003-0.003-0.006-0.006-0.009-0.009-0.008-0.007-0.017-0.013-0.027-0.016l-0.001-0c-0-0-0.001-0-0.001-0-0.004-0.002-0.009-0.003-0.015-0.004l-0-0c-0.005-0.001-0.011-0.001-0.016-0.001s-0.010 0-0.014 0.001c-0.004 0-0.008 0.002-0.011 0.003-0.006 0.002-0.011 0.004-0.015 0.006l0-0c-0.001 0-0.001 0.001-0.001 0.001-0.005 0.002-0.008 0.005-0.012 0.008l0-0-0.003 0.003-1.86 1.4c-0.787-0.684-1.755-1.163-2.823-1.356l-0.416-2.951c4.344 0.311 7.824 3.788 8.136 8.128zM28.913 15.957c0-0.002-0-0.003-0.001-0.005-0.001-0.004-0.002-0.008-0.003-0.012-0.003-0.010-0.007-0.019-0.011-0.028l0 0.001-0.004-0.007c-0.008-0.013-0.018-0.025-0.030-0.034l-0-0c-0.003-0.002-0.006-0.005-0.009-0.007l-0-0c-0.003-0.002-0.006-0.004-0.009-0.006l-0-0c-0.002-0.002-0.004-0.003-0.007-0.004l-0-0c-0.003-0.002-0.006-0.003-0.009-0.004-0.008-0.003-0.017-0.006-0.026-0.008l-0.001-0c-0.002-0-0.003-0-0.005-0.001l-0.007-0.001-3.378-0.475c-0.301-4.459-3.88-8.034-8.344-8.335l-0.476-3.376c-0-0.006-0.002-0.012-0.003-0.019-0.001-0.004-0.002-0.008-0.004-0.012-0.009-0.027-0.025-0.049-0.047-0.064l-0-0c-0.006-0.005-0.013-0.009-0.020-0.013l-0.001-0c-0.004-0.001-0.008-0.003-0.012-0.005-0.007-0.003-0.016-0.005-0.025-0.007l-0.001-0c-0.007-0.001-0.014-0.001-0.022-0.001s-0.015 0.001-0.023 0.002l0.001-0c-0.004 0.001-0.008 0.002-0.013 0.003-0.010 0.003-0.018 0.006-0.025 0.010l0.001-0.001c-0.008 0.004-0.015 0.009-0.022 0.013l0-0c-0.004 0.002-0.007 0.005-0.010 0.008l0-0c-0.006 0.005-0.012 0.011-0.017 0.018l-0 0c-0.008 0.009-0.014 0.020-0.018 0.032l-0 0.001c-0.001 0.003-0.003 0.007-0.004 0.010-0.001 0.001-0.001 0.002-0.001 0.002-0.001 0.006-0.003 0.012-0.004 0.018l-0.476 3.381c-4.464 0.301-8.043 3.876-8.343 8.335l-3.378 0.475c-0.004 0.001-0.007 0.001-0.011 0.002-0.010 0.002-0.019 0.004-0.027 0.008-0.003 0.001-0.006 0.002-0.009 0.004-0.020 0.009-0.037 0.024-0.050 0.041-0.003 0.003-0.005 0.007-0.007 0.010s-0.003 0.005-0.004 0.007c-0.007 0.013-0.012 0.027-0.014 0.042-0.001 0.010-0.001 0.014-0.002 0.018l0-0.006c-0.001 0.005-0.002 0.010-0.002 0.016 0 0.011 0.002 0.022 0.006 0.031l-0-0c0.002 0.008 0.005 0.015 0.008 0.022 0.004 0.007 0.008 0.015 0.013 0.021 0.002 0.003 0.005 0.007 0.008 0.010s0.005 0.006 0.008 0.009c0.011 0.010 0.025 0.019 0.039 0.025 0.004 0.002 0.007 0.003 0.011 0.004s0.007 0.003 0.012 0.003l0 0c0.004 0.001 0.008 0.002 0.012 0.002h0l0.005 0.001 3.38 0.475c0.301 4.459 3.88 8.034 8.343 8.335l0.476 3.381c0.001 0.006 0.003 0.012 0.004 0.018 0.006 0.021 0.017 0.039 0.031 0.055 0.011 0.012 0.025 0.022 0.040 0.029 0.012 0.005 0.024 0.010 0.037 0.012 0.006 0.001 0.014 0.002 0.022 0.002h0c0.003 0 0.006 0 0.009-0 0.027-0.001 0.051-0.011 0.071-0.026l-0 0c0.019-0.014 0.034-0.033 0.044-0.055 0.001-0.004 0.003-0.007 0.004-0.010s0.002-0.008 0.004-0.012c0.001-0.004 0.001-0.009 0.002-0.013l0.001-0.006 0.476-3.376c4.464-0.301 8.043-3.876 8.344-8.335l3.379-0.475c0.006-0.001 0.012-0.002 0.019-0.003 0.004-0.001 0.008-0.002 0.012-0.003s0.007-0.002 0.010-0.004c0.022-0.009 0.041-0.025 0.055-0.044 0.003-0.003 0.005-0.006 0.007-0.010l0-0 0.004-0.007c0.007-0.014 0.012-0.028 0.014-0.044 0.001-0.003 0.001-0.006 0.001-0.009s0-0.006 0-0.009-0-0.007-0-0.010l0 0c-0-0.003-0-0.006-0.001-0.009z"></path>
<path fill="#000" style="fill: var(--color1, #000)" d="M17.151 15.976c0 0.031-0.002 0.060-0.006 0.090-0.002 0.017-0.004 0.033-0.007 0.048l0-0.003c-0.019 0.094-0.055 0.178-0.105 0.251l0.002-0.002h-0c-0.009 0.013-0.017 0.025-0.026 0.037h-0c-0.018 0.024-0.038 0.046-0.059 0.068s-0.044 0.041-0.068 0.059v0c-0.012 0.009-0.024 0.018-0.037 0.026-0.074 0.050-0.158 0.085-0.249 0.104-0.011 0.002-0.026 0.005-0.042 0.007l-0.003 0c-0.029 0.004-0.059 0.006-0.090 0.006s-0.061-0.002-0.090-0.006c-0.019-0.002-0.034-0.005-0.049-0.008l0.004 0.001c-0.094-0.019-0.177-0.055-0.251-0.105l0.002 0.002c-0.014-0.009-0.026-0.018-0.038-0.027l0.001 0.001c-0.025-0.019-0.047-0.038-0.068-0.059l0 0c-0.021-0.021-0.041-0.044-0.060-0.068-0.008-0.010-0.017-0.022-0.025-0.034l-0.001-0.002c-0.048-0.071-0.084-0.154-0.103-0.243l-0.001-0.005c-0.003-0.012-0.005-0.028-0.007-0.043l-0-0.002c-0.004-0.026-0.006-0.057-0.006-0.088 0-0.001 0-0.001 0-0.002v0-0c0-0.031 0.002-0.060 0.006-0.090 0.001-0.015 0.004-0.030 0.007-0.045 0.019-0.094 0.055-0.177 0.105-0.251l-0.002 0.002h0c0.009-0.012 0.017-0.025 0.027-0.037 0.019-0.025 0.039-0.047 0.060-0.068l0-0c0.021-0.021 0.043-0.041 0.067-0.060h0c0.012-0.009 0.024-0.018 0.037-0.027 0.071-0.048 0.155-0.084 0.244-0.102l0.005-0.001c0.015-0.003 0.030-0.005 0.045-0.007 0.029-0.004 0.060-0.006 0.090-0.006s0.061 0.002 0.090 0.006c0.015 0.002 0.030 0.004 0.045 0.007 0.094 0.019 0.178 0.055 0.251 0.105l-0.002-0.002c0.013 0.008 0.025 0.017 0.037 0.027h0c0.048 0.037 0.090 0.079 0.126 0.125l0.001 0.002v0c0.009 0.012 0.018 0.024 0.027 0.037 0.050 0.074 0.085 0.159 0.103 0.249 0.003 0.015 0.006 0.030 0.007 0.045 0.004 0.029 0.006 0.059 0.006 0.090zM17.416 16.066c0.003-0.030 0.004-0.059 0.004-0.090v-0c-0-0.048-0.004-0.094-0.010-0.14l0.001 0.005c-0.024-0.169-0.089-0.319-0.185-0.444l0.002 0.002c-0.009-0.012-0.019-0.024-0.028-0.035v-0c-0.020-0.024-0.040-0.045-0.061-0.066l-0-0c-0.021-0.021-0.042-0.041-0.065-0.059l-0.001-0.001h-0c-0.012-0.010-0.023-0.019-0.035-0.028-0.135-0.103-0.302-0.171-0.484-0.188l-0.004-0c-0.030-0.003-0.060-0.004-0.090-0.004-0.048 0-0.095 0.004-0.14 0.010l0.005-0.001c-0.215 0.031-0.402 0.129-0.544 0.272l-0 0c-0.022 0.021-0.042 0.043-0.061 0.066-0.11 0.131-0.185 0.293-0.211 0.472l-0.001 0.005c-0.002 0.015-0.004 0.030-0.006 0.045-0.003 0.030-0.004 0.059-0.004 0.090v0c0 0.030 0.001 0.060 0.004 0.090 0.002 0.015 0.003 0.030 0.006 0.045 0.027 0.184 0.102 0.346 0.213 0.478l-0.001-0.001c0.019 0.023 0.039 0.045 0.061 0.067s0.043 0.041 0.066 0.061c0.142 0.119 0.322 0.198 0.519 0.217l0.004 0c0.030 0.003 0.060 0.004 0.090 0.004 0.048-0 0.095-0.004 0.14-0.010l-0.005 0.001c0.165-0.023 0.316-0.088 0.443-0.183 0.012-0.009 0.023-0.019 0.035-0.028h0c0.047-0.039 0.088-0.080 0.126-0.125l0.001-0.002h0c0.009-0.012 0.019-0.023 0.028-0.035v-0c0.103-0.135 0.171-0.301 0.189-0.483l0-0.004z"></path>
</symbol>
<symbol id="icon-guide" viewBox="0 0 32 32">
<path fill="#009e35" style="fill: var(--color1, #009e35)" d="M32 31.977c-10.472 2.179-21.128 2.403-32 0.408 18.401-14.378 13.005-12.352 32-0.408z"></path>
<path fill="#9c3" style="fill: var(--color2, #9c3)" d="M12.532 25.080c-6.639 3.589-6.92 3.509-6.062 2.78l7.425-5.046c0.842-0.377 1.676-0.369 2.518 0l7.93 4.894c0.409 0.569-0.73 0.24-5.909-2.419l1.668 3.581c0.056 0.769-0.93-0.040-4.041-4.037-0.377 3.693-0.794 4.814-1.235 4.206l-0.633-4.157c-1.491 2.323-2.149 2.996-2.165 2.419z"></path>
<path fill="#1ea6bc" style="fill: var(--color3, #1ea6bc)" d="M17.929 18.434l-1.236-2.128-1.553-1.047-1.552 1.047-1.237 2.128c-0.143 1.809-0.225 4.903-0.152 10.145 0.892 0.716 1.784 0.716 2.676 0l-0.011-10.8h0.552l-0.011 10.8c0.892 0.556 1.784 0.556 2.675 0 0.073-5.242-0.009-8.336-0.152-10.145z"></path>
<path fill="#1498b7" style="fill: var(--color4, #1498b7)" d="M17.516 16.103l-0.001-0.001-0.822 0.204c0 0 0 0.33 0 0.655 0 0.531 1.236 1.473 1.236 1.473-0.115-1.472-0.271-2.094-0.413-2.331z"></path>
<path fill="#1498b7" style="fill: var(--color4, #1498b7)" d="M12.765 16.102l-0.001 0.001c-0.143 0.237-0.298 0.859-0.414 2.331 0 0 1.237-0.942 1.237-1.473 0-0.325 0-0.655 0-0.655z"></path>
<path fill="#d14b62" style="fill: var(--color5, #d14b62)" d="M15.14 0.075c-2.040 0-2.208 0.828-2.329 1.753v0.001l4.658-0.001c-0.121-0.925-0.289-1.753-2.329-1.753z"></path>
<path fill="#655f68" style="fill: var(--color6, #655f68)" d="M12.696 3.724c0.482 0.303 0.585 0.797 0.285 1.331-0.118 0-0.22-0.015-0.31-0.042-0.208-0.061-0.342-0.186-0.417-0.334-0.013-0.027-0.025-0.054-0.034-0.082-0.022-0.064-0.034-0.131-0.037-0.198-0.016-0.336 0.193-0.676 0.512-0.676z"></path>
<path fill="#f7b6ad" style="fill: var(--color7, #f7b6ad)" d="M12.696 3.724h-0.001c-0.319 0-0.528 0.339-0.512 0.676 0.003 0.067 0.015 0.134 0.037 0.198-0.567-0.569-0.238-1.653 0.451-1.35 0.389 0.16 0.37 0.322 0.025 0.477z"></path>
<path fill="#e7f2f1" style="fill: var(--color8, #e7f2f1)" d="M19.536 11.394c-0.611-3.494-2.976-3.785-2.976-3.785h-2.841c0 0-1.010 0.125-1.881 1.187-0.461 0.563-0.883 1.388-1.094 2.598 0.461 0.71 0.978 1.127 1.55 1.252-0.588 0.412-0.572 0.829 0 1.252 0 0.201 0 0.369 0 0.488 0 0.912 0.277 1.452 0.471 1.716 0.102 0.141 0.18 0.204 0.18 0.204h4.389c0 0 0.078-0.063 0.181-0.204 0.193-0.264 0.47-0.804 0.47-1.716 0-0.166 0-0.427 0-0.739 0.421-0.331 0.415-0.666 0-1.002 0.675-0.365 1.215-0.775 1.551-1.252z"></path>
<path fill="#e15c63" style="fill: var(--color9, #e15c63)" d="M28.156 2.361c0.137 2.075-0.129 3.971-0.129 3.971-2.809 0.876-2.706-0.516-4.659 0-0.25-1.439-0.304-2.788 0-3.971 1.953-0.516 1.978 0.876 4.787 0z"></path>
<path fill="#655f68" style="fill: var(--color6, #655f68)" d="M22.666 2.291v5.957l0.205 0.083c0.272 0.007 0.441-0.070 0.497-0.251v-5.967c-0.533 0-0.702 0.178-0.702 0.178z"></path>
<path fill="#fec4b9" style="fill: var(--color10, #fec4b9)" d="M22.871 8.331c-0.056-0.029-0.118-0.055-0.184-0.077-0.007-0.003-0.015-0.004-0.021-0.006-0.977-0.303-1.012 0.835-0.646 1.71 0 0-1.34 1.405-2.283 3.165l-0.306-0.881c-0.259-0.24-0.7-0.211-1.445 0.404 0 0.356 0 0.703 0 1.002 0 0 0.599 1.742 1.683 1.956 1.462 0.289 3.647-5.187 3.68-5.271 0.676-1.221 0.529-1.897-0.478-2.003z"></path>
<path fill="#e15c63" style="fill: var(--color9, #e15c63)" d="M19.677 31.072c-0.423-0.193-2.178-0.798-2.178-0.798l-1.505 0.056c0 0-0.27 0.081-0.27 0.463v0.652c0 0.302 0.201 0.48 0.732 0.48s2.888 0 3.158 0c0.432 0 0.488-0.66 0.064-0.853z"></path>
<path fill="#e15c63" style="fill: var(--color9, #e15c63)" d="M14.287 30.33l-1.505-0.056c0 0-1.755 0.605-2.179 0.798s-0.368 0.853 0.064 0.853c0.27 0 2.628 0 3.158 0s0.731-0.178 0.731-0.48v-0.652c0-0.382-0.269-0.463-0.269-0.463z"></path>
<path fill="#fec4b9" style="fill: var(--color10, #fec4b9)" d="M17.498 29.95v0.325c0 0-0.219 0.522-0.56 0.538-0.557 0.024-0.946-0.482-0.946-0.482v-0.381c0.501-0.753 1.003-0.75 1.505 0z"></path>
<path fill="#fec4b9" style="fill: var(--color10, #fec4b9)" d="M14.287 29.95v0.381c0 0-0.389 0.506-0.946 0.482-0.34-0.015-0.559-0.538-0.559-0.538v-0.325c0.428-0.499 0.938-0.443 1.505 0z"></path>
<path fill="#f7b6ad" style="fill: var(--color7, #f7b6ad)" d="M24.171 9.888c0.437 0.589-0.595 0.82-0.82 0.445-0.051-0.085-0.060-0.2-0.003-0.35 0.162-0.102 0.538-0.176 0.823-0.094z"></path>
<path fill="#ffd7d2" style="fill: var(--color11, #ffd7d2)" d="M23.348 9.982c-0.181-0.083-0.265-0.263-0.094-0.563 0.214-0.277 0.591-0.269 0.854-0.126 0.297 0.253 0.246 0.463 0.063 0.595-0.21 0.152-0.594 0.201-0.823 0.094z"></path>
<path fill="#f7b6ad" style="fill: var(--color7, #f7b6ad)" d="M24.013 8.67c0.356 0.214 0.306 0.46 0.094 0.623-0.206 0.16-0.567 0.238-0.854 0.126-0.087-0.035-0.168-0.086-0.235-0.159 0.254-0.008 0.354-0.209 0.293-0.435 0.189-0.549 0.452-0.492 0.701-0.154z"></path>
<path fill="#ffd7d2" style="fill: var(--color11, #ffd7d2)" d="M23.368 8.079c0.733-0.244 1.004 0.305 0.645 0.591-0.137 0.111-0.368 0.182-0.701 0.154-0.048-0.176-0.193-0.366-0.441-0.494 0.184-0.121 0.35-0.203 0.497-0.251z"></path>
<path fill="#655f68" style="fill: var(--color6, #655f68)" d="M23.35 10.333h-0.001c0 0 0 0-0.001 0.001-0.017 0.014-0.252 0.196-0.683 0.091v-1.246c0.139 0.061 0.257 0.085 0.353 0.082 0.067 0.073 0.147 0.125 0.235 0.159-0.172 0.301-0.087 0.48 0.094 0.563-0.058 0.15-0.048 0.265 0.003 0.35z"></path>
<path fill="#e15c63" style="fill: var(--color9, #e15c63)" d="M19.536 11.394c0.033 0.189 0.061 0.388 0.083 0.597 0 0-0.038 0.116-0.189 0.25v0.001c-0.206 0.185-0.624 0.404-1.445 0.404 0-0.245 0-0.496 0-0.738 1.1 0 1.551-0.514 1.551-0.514z"></path>
<path fill="#1498b7" style="fill: var(--color4, #1498b7)" d="M18.191 28.689v1.151c0 0.061-0.049 0.11-0.11 0.11h-2.675c-0.061 0-0.11-0.049-0.11-0.11v-1.151c0-0.060 0.049-0.11 0.11-0.11h2.675c0.060 0 0.11 0.049 0.11 0.11z"></path>
<path fill="#e15c63" style="fill: var(--color9, #e15c63)" d="M16.56 7.608c0.151 0.427 0.124 1.489 0.124 1.489-0.591-0.427-1.148-0.432-1.172-0.432 0.241-0.694 0.499-1.114 0.499-1.114s-0.021-0.189-0.036-0.422c0 0 0.432 0.048 0.585 0.479z"></path>
<path fill="#e15c63" style="fill: var(--color9, #e15c63)" d="M15.512 8.666l0.467 0.586c0 0-0.177 0.319-0.521 0.715-0.094 0.108-0.2 0.221-0.319 0.335 0.068-0.633 0.217-1.191 0.372-1.636z"></path>
<path fill="#c43b58" style="fill: var(--color12, #c43b58)" d="M15.14 10.302c0.189 0.348-0.037 1.472-0.319 1.564v-1.9c0.094 0.108 0.2 0.221 0.319 0.335z"></path>
<path fill="#1498b7" style="fill: var(--color4, #1498b7)" d="M14.984 28.689v1.151c0 0.061-0.049 0.11-0.109 0.11h-2.676c-0.060 0-0.109-0.049-0.109-0.11v-1.151c0-0.060 0.049-0.11 0.109-0.11h2.676c0.060 0 0.109 0.049 0.109 0.11z"></path>
<path fill="#e15c63" style="fill: var(--color9, #e15c63)" d="M15.14 10.302c-0.119-0.114-0.225-0.228-0.319-0.335-0.344-0.395-0.521-0.715-0.521-0.715l0.467-0.586c0.155 0.446 0.304 1.004 0.372 1.636z"></path>
<path fill="#e15c63" style="fill: var(--color9, #e15c63)" d="M14.269 7.551c0 0 0.258 0.42 0.499 1.114-0.023 0-0.58 0.005-1.171 0.432 0 0-0.028-1.062 0.123-1.489 0.153-0.431 0.585-0.479 0.585-0.479-0.015 0.233-0.036 0.422-0.036 0.422z"></path>
<path fill="#655f68" style="fill: var(--color6, #655f68)" d="M14.577 15.048v1.258h-1.632v-1.258c0-0.145 0.117-0.261 0.261-0.261h1.109c0.144 0 0.262 0.117 0.262 0.261z"></path>
<path fill="#fec4b9" style="fill: var(--color10, #fec4b9)" d="M10.847 12.239c0 0-0.103 2.342-3.164 2.74 0 0-0.301-0.307-0.623-0.403-0.316-0.095-1.233-0.084-1.432 0.064-0.195 0.145-0.035 0.493 0.227 0.551v0.001c-1.658 0.070-2.203 0.769-1.116 0.913-0.6 0.166-0.915 0.738 0.104 0.789v0.001c-0.41 0.266-0.378 0.769 0.584 0.599-0.408 0.312-0.133 0.751 1.217 0.355 1.248-0.366 1.582-1.196 1.582-1.196 1.598-0.326 2.662-0.847 3.305-1.449 0.437-0.41 0.68-0.857 0.763-1.304 0-0.346 0-0.791 0-1.252-0.586-0.498-1.079-0.562-1.448-0.407z"></path>
<path fill="#e15c63" style="fill: var(--color9, #e15c63)" d="M12.295 11.907c0 0.243 0 0.493 0 0.738-0.824 0-1.243-0.221-1.448-0.407-0.148-0.133-0.186-0.248-0.186-0.248 0.022-0.209 0.050-0.408 0.083-0.597 0 0 0.451 0.514 1.55 0.514z"></path>
<path fill="#e15c63" style="fill: var(--color9, #e15c63)" d="M17.921 2.23c-0.018-0.107-0.177-0.256-0.452-0.402-0.471-0.251-1.286-0.493-2.329-0.493s-1.858 0.242-2.329 0.493c-0.275 0.146-0.433 0.295-0.452 0.402-0.041 0.233 0.364 0.233 0.364 0.233h4.833c0 0 0.406 0 0.364-0.233z"></path>
<path fill="#f7b6ad" style="fill: var(--color7, #f7b6ad)" d="M17.608 3.247c0.885-0.389 1.175 1.508-0.26 1.668-0.785-0.694-0.693-1.385 0.26-1.668z"></path>
<path fill="#fec4b9" style="fill: var(--color10, #fec4b9)" d="M16.927 2.105c-0.386-0.151-0.967-0.293-1.787-0.293s-1.401 0.141-1.787 0.293l-0.681 1.142c0 0.125 0.007 0.29 0.025 0.477 0.036 0.398 0.121 0.895 0.285 1.331 0.065 0.172 0.143 0.335 0.236 0.478 0.241 0.372 0.682 0.719 1.094 0.955 0.016 0.175 0.007 0.427-0.007 0.641-0.015 0.233-0.036 0.422-0.036 0.422s0.258 0.42 0.499 1.114c0.001 0 0.001 0 0.001 0l-0.001 0.001c0.155 0.446 0.304 1.004 0.372 1.636 0.068-0.633 0.217-1.191 0.372-1.636l-0.001-0.001c0 0 0 0 0.001 0 0.241-0.694 0.499-1.114 0.499-1.114s-0.021-0.189-0.036-0.422c-0.015-0.214-0.023-0.466-0.007-0.641 0.413-0.236 0.854-0.582 1.095-0.955 0.117-0.181 0.211-0.394 0.285-0.618 0.202-0.61 0.26-1.304 0.26-1.668z"></path>
<path fill="#f48ca7" style="fill: var(--color13, #f48ca7)" d="M15.741 4.063c0.298 0.096 0.258 0.833-0.601 0.833s-0.899-0.737-0.601-0.833c0.22-0.070 0.378 0.164 0.601 0.164s0.382-0.234 0.601-0.164z"></path>
<path fill="#655f68" style="fill: var(--color6, #655f68)" d="M17.557 2.463c0.040 0.276 0.052 0.546 0.052 0.784 0 0-0.681-0.199-0.681-1.142 0.442 0.173 0.629 0.358 0.629 0.358z"></path>
<path fill="#655f68" style="fill: var(--color6, #655f68)" d="M12.723 2.463c0 0 0.187-0.185 0.629-0.358 0 0.943-0.681 1.142-0.681 1.142 0-0.239 0.012-0.508 0.052-0.784z"></path>
<path fill="#d14b62" style="fill: var(--color5, #d14b62)" d="M15.459 9.967v1.9h-0.637c0.066-0.473 0.319-1.564 0.319-1.564 0.119-0.114 0.225-0.228 0.319-0.335z"></path>
<path fill="#f7b6ad" style="fill: var(--color7, #f7b6ad)" d="M19.37 15.503c-0.895-0.432-1.385-1.855-1.385-1.855 0-0.299 0-0.646 0-1.002 0.101 0 0.196-0.003 0.285-0.010 0.206 1.196 0.547 2.458 1.1 2.867z"></path>
<path fill="#d14b62" style="fill: var(--color5, #d14b62)" d="M18.159 11.903c0.032 0.236 0.069 0.483 0.112 0.733-0.089 0.006-0.184 0.010-0.285 0.010 0-0.245 0-0.496 0-0.738 0.060 0 0.118-0.001 0.173-0.005z"></path>
<path fill="#d6eae8" style="fill: var(--color14, #d6eae8)" d="M18.159 11.903c-0.056 0.003-0.113 0.005-0.173 0.005 0-0.94 0-1.766 0-1.766s0.042 0.784 0.173 1.761z"></path>
<path fill="#d6eae8" style="fill: var(--color14, #d6eae8)" d="M12.295 10.142c0 0 0 0.826 0 1.766-0.052 0-0.104-0.001-0.153-0.004 0.131-0.988 0.153-1.762 0.153-1.762z"></path>
<path fill="#f7b6ad" style="fill: var(--color7, #f7b6ad)" d="M12.295 12.646c0 0.461 0 0.906 0 1.252-0.083 0.448-0.326 0.894-0.763 1.304-0.262 0.246-0.595 0.479-1.006 0.69 0.824-0.467 1.267-1.924 1.504-3.254 0.083 0.005 0.172 0.008 0.265 0.008z"></path>
<path fill="#d14b62" style="fill: var(--color5, #d14b62)" d="M12.295 11.907c0 0.243 0 0.493 0 0.738-0.094 0-0.182-0.003-0.265-0.008 0.044-0.252 0.081-0.499 0.113-0.735 0.049 0.003 0.1 0.004 0.153 0.004z"></path>
<path fill="#f7b6ad" style="fill: var(--color7, #f7b6ad)" d="M15.968 7h-0.001c-0.875 0.837-1.653 0-1.653 0h-0.001c0.009-0.18 0.012-0.371-0.001-0.512 0.335 0.192 0.652 0.31 0.828 0.31s0.494-0.118 0.828-0.31c-0.013 0.141-0.010 0.331-0.001 0.512z"></path>
<path fill="#655f68" style="fill: var(--color6, #655f68)" d="M14.463 5.028c0.246 0 0.445 0.158 0.445 0.353s-0.199 0.352-0.445 0.352-0.445-0.158-0.445-0.352c0-0.195 0.199-0.353 0.445-0.353z"></path>
<path fill="#3a322b" style="fill: var(--color15, #3a322b)" d="M14.142 3.871c-0.15 0-0.273-0.122-0.273-0.273s0.122-0.272 0.273-0.272c0.151 0 0.273 0.122 0.273 0.272s-0.122 0.273-0.273 0.273zM16.138 3.326c-0.15 0-0.273 0.122-0.273 0.273s0.122 0.272 0.273 0.272c0.151 0 0.273-0.122 0.273-0.272s-0.122-0.273-0.273-0.273zM14.319 2.593c0.032 0.018 0.073 0.006 0.090-0.026s0.006-0.073-0.026-0.090c-0.016-0.009-0.394-0.209-0.776 0.058-0.030 0.021-0.038 0.062-0.016 0.092 0.013 0.019 0.033 0.028 0.054 0.028 0.013 0 0.026-0.004 0.038-0.012 0.314-0.22 0.624-0.058 0.637-0.051zM15.897 2.477c-0.032 0.017-0.044 0.058-0.027 0.090s0.058 0.044 0.090 0.027c0.013-0.007 0.323-0.169 0.637 0.051 0.011 0.008 0.025 0.012 0.038 0.012 0.021 0 0.041-0.010 0.054-0.028 0.021-0.030 0.014-0.071-0.016-0.092-0.383-0.268-0.76-0.067-0.776-0.058zM15.97 4.421c-0.039 0.25-0.28 0.541-0.83 0.541s-0.79-0.291-0.83-0.541c-0.031-0.195 0.057-0.372 0.208-0.421 0.149-0.048 0.274 0.018 0.383 0.077 0.080 0.043 0.156 0.084 0.239 0.084s0.159-0.041 0.239-0.084c0.11-0.059 0.234-0.125 0.383-0.077 0.151 0.048 0.239 0.226 0.208 0.421zM15.721 4.126c-0.095-0.031-0.181 0.015-0.28 0.068-0.087 0.046-0.185 0.099-0.301 0.099s-0.214-0.053-0.301-0.099c-0.077-0.041-0.145-0.078-0.217-0.078-0.021 0-0.042 0.003-0.063 0.010-0.088 0.028-0.138 0.144-0.117 0.274 0.033 0.207 0.233 0.429 0.699 0.429s0.666-0.222 0.699-0.429c0.020-0.13-0.029-0.246-0.117-0.274zM28.222 2.357c0.136 2.057-0.126 3.965-0.129 3.984-0.004 0.026-0.022 0.047-0.046 0.054-0.711 0.222-1.241 0.299-1.665 0.299-0.518 0-0.876-0.115-1.211-0.222-0.472-0.151-0.919-0.293-1.737-0.088v1.605c0.378-0.1 0.586 0.026 0.655 0.083 0.137 0.112 0.184 0.289 0.118 0.451-0.019 0.047-0.048 0.094-0.088 0.138 0.198 0.143 0.23 0.288 0.219 0.388-0.010 0.088-0.057 0.172-0.131 0.245 0.258 0.253 0.181 0.449 0.108 0.546-0.016 0.022-0.035 0.042-0.056 0.061 0.115 0.184 0.112 0.363-0.013 0.497-0.11 0.119-0.303 0.183-0.489 0.183-0.124 0-0.245-0.028-0.338-0.088-0.017-0.011-0.033-0.024-0.047-0.036-0.307 0.754-2.187 5.224-3.592 5.224-0.042 0-0.083-0.004-0.124-0.012-0.827-0.163-1.37-1.156-1.603-1.679v0.396c0 0.895-0.26 1.438-0.458 1.722 0.469 0.896 0.655 5.072 0.554 12.418 0.064 0.027 0.109 0.089 0.109 0.162v1.151c0 0.097-0.079 0.176-0.176 0.176h-0.516v0.212c0.28 0.097 1.75 0.607 2.139 0.784 0.272 0.124 0.366 0.414 0.317 0.637-0.046 0.211-0.203 0.343-0.409 0.343h-3.158c-0.537 0-0.798-0.179-0.798-0.546v-0.653c0-0.329 0.181-0.461 0.27-0.506v-0.271h-0.521c-0.097 0-0.176-0.079-0.176-0.176v-1.151c0-0.073 0.045-0.136 0.109-0.163l0.010-10.681h-0.419l0.010 10.681c0.064 0.026 0.109 0.089 0.109 0.163v1.151c0 0.097-0.079 0.176-0.176 0.176h-0.521v0.271c0.088 0.045 0.27 0.177 0.27 0.506v0.653c0 0.367-0.261 0.546-0.797 0.546h-3.158c-0.206 0-0.363-0.131-0.409-0.343-0.048-0.223 0.045-0.514 0.317-0.637 0.39-0.177 1.86-0.687 2.14-0.784v-0.212h-0.517c-0.097 0-0.176-0.079-0.176-0.176v-1.151c0-0.073 0.045-0.136 0.109-0.162-0.1-7.276 0.082-11.442 0.541-12.391-0.478-0.202-0.863-0.483-1.148-0.836-0.595 0.538-1.59 1.068-3.251 1.41-0.078 0.164-0.473 0.868-1.61 1.201-0.365 0.107-0.678 0.16-0.921 0.16-0.275 0-0.46-0.068-0.529-0.204-0.045-0.088-0.030-0.188 0.036-0.285-0.062 0.006-0.122 0.010-0.177 0.010-0.264 0-0.443-0.071-0.515-0.214-0.066-0.132-0.017-0.297 0.119-0.434-0.325-0.040-0.518-0.145-0.555-0.314-0.039-0.177 0.119-0.375 0.377-0.504-0.169-0.045-0.287-0.111-0.346-0.197-0.051-0.074-0.056-0.161-0.015-0.244 0.114-0.229 0.616-0.475 1.491-0.545-0.073-0.069-0.123-0.156-0.143-0.237-0.031-0.129 0.007-0.245 0.103-0.316 0.225-0.167 1.164-0.173 1.491-0.074 0.284 0.085 0.547 0.321 0.626 0.397 1.213-0.165 2.128-0.676 2.647-1.479 0.345-0.533 0.413-1.036 0.425-1.163-0.137-0.132-0.177-0.244-0.181-0.255-0.003-0.009-0.004-0.018-0.003-0.028 0.167-1.571 0.667-2.578 1.182-3.216l0.039-0.13c0.399-1.342 0.776-2.61 0.788-3.577-0.111-0.040-0.207-0.099-0.283-0.177-0.070-0.071-0.122-0.156-0.157-0.251-0.369-0.382-0.367-0.951-0.152-1.265 0.141-0.206 0.359-0.283 0.595-0.215 0.003-0.222 0.017-0.432 0.042-0.628-0.089-0.009-0.234-0.038-0.31-0.127-0.042-0.049-0.057-0.111-0.045-0.179 0.021-0.121 0.182-0.278 0.455-0.43 0.111-0.841 0.259-1.781 2.391-1.781s2.281 0.939 2.391 1.781c0.274 0.152 0.435 0.309 0.456 0.43 0.012 0.068-0.004 0.13-0.045 0.179-0.076 0.090-0.221 0.118-0.31 0.127 0.025 0.196 0.039 0.406 0.043 0.628 0.187-0.054 0.362-0.018 0.5 0.106 0.228 0.205 0.305 0.602 0.188 0.965-0.133 0.413-0.483 0.684-0.963 0.751-0.074 0.215-0.166 0.418-0.279 0.594-0.241 0.372-0.673 0.72-1.087 0.961-0.011 0.154-0.004 0.358 0.007 0.543 0.126 0.028 0.429 0.131 0.569 0.475 0.154 0.027 0.735 0.159 1.363 0.678 0.658 0.545 1.49 1.639 1.714 3.757 0.001 0.009 0 0.019-0.003 0.028-0.004 0.011-0.043 0.12-0.175 0.249l0.243 0.699c0.855-1.546 1.994-2.804 2.191-3.017-0.223-0.557-0.315-1.294 0.002-1.637 0.107-0.116 0.307-0.229 0.656-0.146v-5.87c0-0.017 0.006-0.033 0.018-0.046 0.008-0.008 0.195-0.198 0.75-0.198 0.037 0 0.066 0.030 0.066 0.066v0.164c0.834-0.203 1.319-0.058 1.829 0.097 0.655 0.199 1.332 0.404 2.872-0.076 0.019-0.006 0.041-0.003 0.057 0.009s0.027 0.030 0.029 0.050zM19.551 11.981c-0.017-0.158-0.038-0.309-0.061-0.455-0.182 0.149-0.634 0.432-1.438 0.447v0.606c1.182-0.018 1.461-0.515 1.499-0.597zM16.048 7.213c0.014 0.187 0.029 0.328 0.030 0.331 0.002 0.015-0.002 0.029-0.009 0.042-0.004 0.006-0.236 0.39-0.463 1.019 0.176 0.016 0.576 0.083 1.014 0.368 0.002-0.29-0.006-1.016-0.121-1.342-0.1-0.282-0.328-0.383-0.45-0.418zM13.661 8.972c0.437-0.285 0.838-0.352 1.014-0.368-0.227-0.629-0.459-1.012-0.463-1.018-0.008-0.013-0.011-0.027-0.009-0.042 0-0.003 0.016-0.144 0.030-0.331-0.122 0.035-0.35 0.136-0.45 0.418-0.115 0.326-0.123 1.052-0.121 1.342zM14.743 8.803l-0.362 0.455c0.069 0.114 0.296 0.472 0.669 0.86-0.068-0.495-0.183-0.941-0.307-1.315zM14.888 10.14v1.002c0.074-0.358 0.153-0.706 0.179-0.819-0.063-0.062-0.123-0.123-0.179-0.184zM14.899 11.8h0.494v-1.66c-0.060 0.064-0.124 0.13-0.192 0.196-0.032 0.14-0.23 1.006-0.302 1.464zM15.899 9.258l-0.362-0.455c-0.124 0.374-0.239 0.82-0.307 1.315 0.373-0.388 0.601-0.746 0.669-0.86zM15.895 6.606c-0.303 0.161-0.583 0.258-0.755 0.258s-0.452-0.097-0.755-0.258c0.011 0.342-0.037 0.82-0.048 0.93 0.083 0.143 0.582 1.038 0.803 2.297 0.221-1.259 0.72-2.154 0.804-2.297-0.012-0.11-0.059-0.588-0.049-0.93zM17.542 3.292c-0.159-0.068-0.66-0.345-0.68-1.139-0.38-0.143-0.941-0.274-1.722-0.274s-1.342 0.131-1.722 0.274c-0.020 0.794-0.52 1.071-0.68 1.139 0.005 0.398 0.077 1.125 0.303 1.728 0.055 0.049 0.339 0.278 0.918 0.293 0.040-0.199 0.251-0.351 0.504-0.351 0.282 0 0.512 0.188 0.512 0.419s-0.229 0.419-0.512 0.419c-0.255 0-0.467-0.154-0.505-0.354-0.392-0.010-0.66-0.11-0.823-0.2 0.042 0.089 0.087 0.173 0.138 0.251 0.438 0.676 1.506 1.235 1.867 1.235s1.429-0.559 1.867-1.235c0.411-0.635 0.528-1.693 0.535-2.205zM14.463 5.668c0.209 0 0.379-0.129 0.379-0.286s-0.17-0.287-0.379-0.287-0.379 0.129-0.379 0.287c0 0.158 0.17 0.286 0.379 0.286zM12.739 3.147c0.165-0.082 0.509-0.327 0.544-0.939-0.292 0.125-0.449 0.248-0.497 0.288-0.028 0.201-0.043 0.42-0.047 0.651zM16.997 2.208c0.035 0.612 0.379 0.857 0.544 0.939-0.004-0.231-0.019-0.45-0.047-0.651-0.048-0.041-0.205-0.163-0.497-0.288zM17.675 3.293c-0.004 0.377-0.062 0.982-0.231 1.54 0.394-0.074 0.68-0.306 0.791-0.65 0.1-0.31 0.037-0.657-0.15-0.826-0.111-0.1-0.253-0.122-0.41-0.064zM12.893 1.715c0.499-0.239 1.282-0.446 2.247-0.446s1.748 0.207 2.247 0.446c-0.113-0.825-0.301-1.574-2.247-1.574s-2.135 0.749-2.247 1.574zM12.44 2.313c0.051 0.060 0.188 0.080 0.258 0.084 0.13-0.113 0.828-0.65 2.441-0.65s2.312 0.536 2.441 0.649c0.070-0.004 0.208-0.023 0.258-0.084 0.016-0.019 0.021-0.041 0.016-0.070-0.038-0.216-1.030-0.84-2.716-0.84s-2.678 0.624-2.716 0.84c-0.005 0.029-0 0.051 0.016 0.071zM12.117 4.349c0.006-0.312 0.196-0.64 0.506-0.685-0.011-0.138-0.017-0.264-0.018-0.371-0.263-0.096-0.416 0.051-0.484 0.151-0.152 0.222-0.172 0.599-0.004 0.905zM12.415 4.791c0.11 0.112 0.272 0.178 0.471 0.194-0.137-0.393-0.213-0.823-0.25-1.189-0.24 0.040-0.386 0.313-0.386 0.568 0 0.167 0.059 0.319 0.166 0.427zM11.987 8.528c0.11-0.116 0.218-0.216 0.322-0.302 0.628-0.52 1.209-0.651 1.363-0.678 0.14-0.344 0.443-0.447 0.569-0.475 0.011-0.185 0.018-0.389 0.007-0.543-0.414-0.241-0.846-0.589-1.087-0.961-0.088-0.135-0.162-0.288-0.225-0.449-0.071-0.002-0.137-0.010-0.2-0.023-0.020 0.945-0.368 2.151-0.749 3.431zM12.228 12.579v-0.606c-0.804-0.015-1.256-0.298-1.438-0.447-0.023 0.146-0.044 0.298-0.061 0.455 0.038 0.081 0.316 0.579 1.5 0.597zM5.868 16.753c-0.063-0.163-0.111-0.359-0.116-0.587-0.209 0.019-0.403 0.030-0.577 0.030-0.16 0-0.303-0.008-0.43-0.024-0.326 0.094-0.522 0.3-0.494 0.429 0.039 0.18 0.488 0.325 1.617 0.152zM6.146 17.223c-0.065-0.077-0.149-0.192-0.223-0.344-0.354 0.055-0.663 0.083-0.92 0.083-0.047 0-0.092-0.001-0.136-0.003-0.161 0.109-0.241 0.258-0.19 0.359 0.070 0.139 0.458 0.269 1.47-0.095zM12.228 13.891v-1.18c-0.691-0.010-1.096-0.176-1.329-0.344-0.076 0.498-0.537 2.33-3.208 2.678-0.021 0.003-0.041-0.004-0.056-0.019-0.003-0.003-0.293-0.296-0.594-0.386-0.311-0.093-1.198-0.076-1.374 0.054-0.071 0.052-0.064 0.135-0.053 0.179 0.025 0.107 0.128 0.233 0.269 0.258 0.101 0.018 0.212 0.015 0.319 0.011 0.184-0.006 0.343-0.011 0.43 0.091 0.026 0.031 0.050 0.069 0.078 0.114 0.097 0.156 0.217 0.35 0.517 0.364 0.037 0.002 0.065 0.033 0.063 0.069-0.002 0.036-0.031 0.063-0.066 0.063-0.001 0-0.002 0-0.003 0-0.369-0.017-0.522-0.263-0.624-0.426-0.025-0.040-0.046-0.075-0.066-0.098-0.045-0.053-0.181-0.049-0.324-0.045-0.109 0.003-0.232 0.007-0.346-0.013-0.003-0.001-0.005-0.002-0.008-0.002-1.016 0.044-1.512 0.314-1.597 0.485-0.020 0.041-0.019 0.076 0.005 0.11 0.097 0.14 0.548 0.269 1.492 0.18 0.004-0.086 0.014-0.175 0.031-0.269 0.007-0.036 0.041-0.060 0.077-0.053s0.060 0.041 0.053 0.077c-0.147 0.802 0.264 1.287 0.394 1.416 0.016 0.016 0.023 0.039 0.018 0.061s-0.020 0.040-0.041 0.048c-0.31 0.116-0.588 0.196-0.827 0.24-0.113 0.089-0.162 0.186-0.127 0.254 0.054 0.107 0.395 0.24 1.294-0.023 1.199-0.352 1.536-1.149 1.539-1.157 0.008-0.020 0.026-0.036 0.048-0.040 3.17-0.646 3.877-1.963 4.015-2.695zM12.588 15.953c-0.176-0.31-0.36-0.814-0.36-1.567v-0.043c-0.113 0.267-0.3 0.565-0.607 0.865 0.244 0.306 0.568 0.556 0.967 0.745zM14.511 15.047c0-0.107-0.087-0.195-0.195-0.195h-1.109c-0.107 0-0.195 0.087-0.195 0.195v1.192h1.499zM12.776 16.226c-0.124 0.28-0.249 0.884-0.347 2.062 0.387-0.314 1.092-0.96 1.092-1.327v-0.589h-0.576c-0.015 0-0.030-0.005-0.042-0.014-0.007-0.006-0.058-0.048-0.128-0.132zM14.305 30.412c-0.105 0.12-0.45 0.467-0.924 0.467-0.014 0-0.028-0-0.043-0.001-0.31-0.014-0.521-0.378-0.592-0.521-0.302 0.105-1.742 0.605-2.116 0.775-0.208 0.095-0.279 0.317-0.242 0.488 0.032 0.149 0.137 0.238 0.279 0.238h3.158c0.589 0 0.665-0.221 0.665-0.413v-0.653c0-0.243-0.121-0.345-0.185-0.381zM14.22 30.016h-1.372v0.245c0.034 0.074 0.228 0.473 0.496 0.485 0.459 0.020 0.805-0.354 0.876-0.439zM14.917 28.689c0-0.024-0.019-0.043-0.043-0.043h-2.676c-0.024 0-0.043 0.019-0.043 0.043v1.151c0 0.024 0.019 0.043 0.043 0.043h2.676c0.024 0 0.043-0.019 0.043-0.043zM19.65 31.132c-0.374-0.17-1.814-0.671-2.116-0.775-0.071 0.143-0.282 0.508-0.592 0.521-0.014 0-0.028 0.001-0.042 0.001-0.474 0-0.819-0.347-0.924-0.467-0.064 0.036-0.185 0.138-0.185 0.381v0.653c0 0.192 0.075 0.413 0.665 0.413h3.158c0.142 0 0.247-0.089 0.279-0.238 0.037-0.171-0.034-0.394-0.242-0.488zM17.432 30.016h-1.372v0.291c0.072 0.084 0.417 0.459 0.876 0.439 0.238-0.010 0.434-0.342 0.496-0.485zM18.124 28.689c0-0.024-0.019-0.043-0.043-0.043h-2.676c-0.024 0-0.043 0.019-0.043 0.043v1.151c0 0.024 0.019 0.043 0.043 0.043h2.676c0.024 0 0.043-0.019 0.043-0.043zM17.866 18.469c-0.176-0.137-1.24-0.986-1.24-1.508v-0.589h-2.972v0.589c0 0.522-1.063 1.371-1.24 1.508-0.141 1.816-0.221 4.9-0.15 10.044h2.544l-0.010-10.734c0-0.017 0.007-0.034 0.019-0.047s0.029-0.020 0.047-0.020h0.552c0.018 0 0.034 0.007 0.047 0.020s0.019 0.029 0.019 0.047l-0.010 10.734h2.543c0.071-5.144-0.009-8.228-0.15-10.044zM17.504 16.226c-0.070 0.084-0.121 0.126-0.128 0.132-0.012 0.009-0.027 0.014-0.042 0.014h-0.576v0.589c0 0.367 0.705 1.014 1.093 1.327-0.098-1.178-0.224-1.782-0.347-2.062zM17.919 10.142c0-0.037 0.030-0.066 0.066-0.066s0.066 0.030 0.066 0.066v1.698c0.876-0.018 1.313-0.374 1.412-0.467-0.3-1.663-1.003-2.565-1.571-3.038-0.528-0.439-1.029-0.592-1.238-0.64 0.118 0.476 0.096 1.364 0.095 1.404-0.001 0.025-0.015 0.047-0.037 0.058-0.009 0.004-0.019 0.007-0.029 0.007-0.014 0-0.028-0.004-0.039-0.013-0.399-0.289-0.784-0.379-0.985-0.407l0.372 0.467c0.017 0.021 0.019 0.050 0.006 0.073-0.009 0.016-0.181 0.323-0.513 0.707v1.875c0 0.037-0.030 0.066-0.066 0.066h-0.637c-0.037 0-0.066-0.030-0.066-0.066v-1.875c-0.332-0.384-0.503-0.691-0.513-0.707-0.013-0.024-0.010-0.053 0.006-0.073l0.371-0.466c-0.203 0.028-0.587 0.118-0.985 0.406-0.011 0.008-0.025 0.013-0.039 0.013-0.010 0-0.020-0.002-0.029-0.007-0.022-0.011-0.036-0.033-0.037-0.058-0.001-0.040-0.023-0.928 0.095-1.404-0.209 0.048-0.71 0.201-1.238 0.64-0.569 0.473-1.271 1.375-1.571 3.037 0.099 0.093 0.536 0.45 1.412 0.467v-1.698c0-0.037 0.030-0.066 0.066-0.066s0.066 0.030 0.066 0.066v4.245c0 0.994 0.339 1.537 0.518 1.754v-1.093c0-0.181 0.147-0.328 0.328-0.328h1.109c0.181 0 0.328 0.147 0.328 0.328v1.192h2.666c0.098-0.093 0.61-0.633 0.61-1.854zM23.22 10.474c-0.075 0.027-0.173 0.049-0.296 0.049-0.081 0-0.172-0.010-0.274-0.034-0.030-0.007-0.051-0.034-0.051-0.065v-1.203c-0.103-0.049-0.219-0.117-0.349-0.211-0.030-0.022-0.037-0.063-0.015-0.093s0.063-0.037 0.093-0.015c0.354 0.256 0.663 0.351 0.828 0.256 0.078-0.045 0.117-0.135 0.105-0.246-0.022-0.207-0.214-0.471-0.595-0.595-0.282-0.092-0.492-0.065-0.626 0.080-0.272 0.295-0.186 0.995 0.040 1.536 0.010 0.024 0.005 0.052-0.013 0.071-0.016 0.017-1.618 1.709-2.534 3.672-0.011 0.024-0.035 0.038-0.060 0.038-0.009 0-0.019-0.002-0.028-0.006-0.033-0.015-0.048-0.055-0.032-0.088 0.079-0.17 0.163-0.337 0.251-0.502l-0.265-0.764c-0.23 0.173-0.638 0.347-1.347 0.358v0.925c0.049 0.136 0.636 1.707 1.629 1.903 1.264 0.25 3.159-4.15 3.539-5.065zM23.163 9.45c-0.061-0.031-0.118-0.072-0.17-0.124-0.072-0.001-0.158-0.015-0.26-0.051v1.095c0.28 0.055 0.46-0.020 0.535-0.063-0.031-0.085-0.032-0.185 0.001-0.294-0.003-0.002-0.008-0.004-0.011-0.006-0.086-0.056-0.257-0.22-0.094-0.558zM24.151 9.977c-0.142 0.081-0.33 0.128-0.509 0.128-0.090 0-0.176-0.013-0.253-0.037-0.039 0.141-0.005 0.247 0.1 0.314 0.18 0.115 0.519 0.077 0.659-0.074 0.082-0.088 0.082-0.2 0.002-0.331zM24.102 9.378c-0.065 0.043-0.139 0.079-0.224 0.107-0.097 0.032-0.211 0.052-0.329 0.052-0.087 0-0.175-0.012-0.261-0.038-0.092 0.184-0.079 0.318 0.042 0.398 0.223 0.147 0.725 0.069 0.88-0.137 0.083-0.11 0.045-0.238-0.107-0.382zM24.016 8.75c-0.128 0.086-0.313 0.147-0.566 0.147-0.018 0-0.038-0.002-0.057-0.002 0 0.001 0.001 0.002 0.001 0.003 0.017 0.163-0.047 0.303-0.17 0.375-0.016 0.009-0.035 0.018-0.056 0.026 0.204 0.136 0.477 0.123 0.669 0.060 0.207-0.068 0.356-0.198 0.37-0.325 0.013-0.119-0.089-0.217-0.191-0.284zM22.999 8.328c0.188 0.122 0.307 0.281 0.362 0.432 0.437 0.025 0.661-0.13 0.724-0.287 0.044-0.109 0.014-0.223-0.079-0.299-0.159-0.13-0.504-0.151-1.007 0.154zM23.302 8.031v-5.851c-0.352 0.011-0.517 0.105-0.569 0.142v5.878c0.047 0.017 0.093 0.035 0.135 0.055 0.162-0.104 0.307-0.176 0.435-0.223zM28.095 2.449c-1.523 0.46-2.238 0.243-2.87 0.052-0.499-0.151-0.971-0.294-1.79-0.088v3.834c0.834-0.203 1.293-0.057 1.777 0.098 0.612 0.196 1.245 0.399 2.755-0.064 0.037-0.285 0.24-1.988 0.128-3.831z"></path>
</symbol>
</defs>
</svg>
