<svg xmlns="http://www.w3.org/2000/svg" width="500" height="500" version="1.0" viewBox="0 0 375 375"><defs><clipPath id="a"><path d="M98 89.805h137.05v150H98Zm0 0"/></clipPath><clipPath id="b"><path d="M90.3 93H176v80H90.3Zm0 0"/></clipPath></defs><path fill="#ebc46a" d="m187.5 337.441-42.465-135.968 42.465-43.239 42.465 43.239Zm0 37.559 5.348-17.113 49.808-159.473-55.156-56.152-55.156 56.16Zm0 0"/><path fill="#274753" d="m187.5 346.828-45.637-146.121 45.637-46.46 45.637 46.468Zm0 18.781 2.672-8.558 49.312-157.875L187.5 146.25l-51.984 52.926Zm0 0"/><path fill="#274753" d="m187.5 356.219 48.809-156.278-48.809-49.695-48.809 49.695Zm0 0"/><path fill="#97d5ef" d="M187.5 356.219 138.691 199.94l48.809-49.695Zm0 0"/><path fill="#ebc46a" d="m337.441 187.5-135.968 42.465-43.239-42.465 43.239-42.465Zm37.559 0-17.113-5.348-159.473-49.808-56.152 55.156 56.16 55.156Zm0 0"/><path fill="#274753" d="m346.828 187.5-146.121 45.637-46.46-45.637 46.468-45.637Zm18.781 0-8.558-2.672-157.875-49.312L146.25 187.5l52.926 51.984Zm0 0"/><path fill="#274753" d="M356.219 187.5 199.94 138.691 150.246 187.5l49.695 48.809Zm0 0"/><path fill="#97d5ef" d="M356.219 187.5 199.94 236.309 150.246 187.5Zm0 0"/><path fill="#ebc46a" d="m37.559 187.5 135.968-42.465 43.239 42.465-43.239 42.465ZM0 187.5l17.11 5.348 159.468 49.808 56.16-55.156-56.152-55.156Zm0 0"/><path fill="#274753" d="m28.172 187.5 146.121-45.637 46.46 45.637-46.468 45.637Zm-18.781 0 8.558 2.672 157.875 49.312L228.75 187.5l-52.926-51.984Zm0 0"/><path fill="#274753" d="m18.781 187.5 156.278 48.809 49.695-48.809-49.695-48.809Zm0 0"/><path fill="#97d5ef" d="m18.781 187.5 156.278-48.809 49.695 48.809Zm0 0"/><path fill="#ebc46a" d="m187.5 37.559 42.465 135.968-42.465 43.239-42.465-43.239ZM187.5 0l-5.348 17.11-49.808 159.468 55.156 56.16 55.156-56.152Zm0 0"/><path fill="#274753" d="m187.5 28.172 45.637 146.121-45.637 46.46-45.637-46.468Zm0-18.781-2.672 8.558-49.312 157.875L187.5 228.75l51.984-52.926Zm0 0"/><path fill="#274753" d="M187.5 18.781 138.691 175.06l48.809 49.695 48.809-49.695Zm0 0"/><path fill="#97d5ef" d="m187.5 18.781 48.809 156.278-48.809 49.695Zm0 0"/><path fill="#ebc46a" d="M187.5 91.246c52.89 0 95.496 42.606 95.496 95.496 0 52.89-42.605 95.496-95.496 95.496-52.898 0-95.496-42.605-95.496-95.496 0-52.89 42.605-95.496 95.496-95.496Zm0-25.629c-66.742 0-121.125 54.383-121.125 121.125 0 66.742 54.383 121.125 121.125 121.125 66.742 0 121.133-54.383 121.133-121.125 0-66.742-54.39-121.125-121.133-121.125Zm0 0"/><path fill="#274753" d="M187.5 87.473c54.93 0 99.27 44.34 99.27 99.27 0 54.929-44.34 99.269-99.27 99.269-54.93 0-99.27-44.34-99.27-99.27 0-54.93 44.34-99.27 99.27-99.27Zm0-18.09c-64.71 0-117.36 52.648-117.36 117.36 0 64.71 52.65 117.359 117.36 117.359 64.71 0 117.36-52.649 117.36-117.36 0-64.71-52.65-117.36-117.36-117.36Zm0 0"/><path fill="#ede8d6" d="M187.5 82.2c57.781 0 104.543 46.76 104.543 104.542 0 57.781-46.762 104.543-104.543 104.543-57.781 0-104.543-46.762-104.543-104.543C82.957 128.961 129.719 82.2 187.5 82.2Zm0-7.536c-61.86 0-112.078 50.227-112.078 112.078 0 61.86 50.226 112.082 112.078 112.082 61.86 0 112.078-50.23 112.078-112.082 0-61.86-50.219-112.078-112.078-112.078Zm0 0"/><path fill="#274753" d="M295.816 186.742c0 59.422-48.894 108.317-108.316 108.317-59.422 0-108.316-48.895-108.316-108.317 0-59.422 48.894-108.316 108.316-108.316 59.414 0 108.316 48.902 108.316 108.316Zm0 0"/><path fill="#ebc46a" d="M187.5 78.426a108.327 108.327 0 0 0-76.59 31.726 108.327 108.327 0 0 0-31.726 76.59 108.37 108.37 0 0 0 2.054 20.617l27.563-17.472 7.695 6.23 43.875-34.808 5.988 7.328 34.184-31.883 22.223 28.95 11.265-9.278 60.117 48.84a108.523 108.523 0 0 0 1.66-18.516c0-28.727-11.41-56.281-31.726-76.59A108.284 108.284 0 0 0 187.5 78.426Zm0 0"/><path fill="#97d5ef" d="m200.543 136.754-34.184 31.883-5.988-7.328-43.875 34.808-7.695-6.23-27.563 17.472a109.632 109.632 0 0 0 2.739 11.243h207.039a107.812 107.812 0 0 0 3.132-13.348l-60.117-48.84-11.265 9.277Zm0 0"/><path fill="#ede8d6" d="m85.164 211.36 24.574-11.665 16.719 3.883-4.633-3.883 36.664-24.097 12.285 2.332-10.468 9.586 26.183-10.368-10.875-5.437 25.176-20.984.406 18.91h6.653l22.964 11.922-26.19 2.59-8.864 15.027-23.371 6.738 4.636-14.77-20.753 12.434 4.23 4.149-18.93 1.554.196-9.332-15.106 11.926-18.426-5.676ZM241.89 169.637l38.676 31.61-20.75-7.25-14.703-2.333 2.621-5.445Zm0 0"/><path fill="#97d5ef" d="M101.852 218.61c13.312 35.788 47.457 59.542 85.648 59.566 38.191-.024 72.336-23.778 85.648-59.567Zm0 0"/><path fill="#229ebd" d="M101.852 218.61a91.125 91.125 0 0 0 15.058 26.175l20.012-9.707 25.933 12.258 4.274-4.563 37.914 15.391 22.8-13.68 8.833 1.996 14.25-10.546 12.863 1.113a91.428 91.428 0 0 0 9.348-18.438Zm0 0"/><path fill="#274753" d="M100.95 234.855s-1.403 4.168-4.641 8.88c-1.98-2.512-3.543-5-4.727-7.169 1.262-.105 6.434-.562 9.367-1.71Zm-12.384-4.859c1.809.711 4.352 1.207 6.676 1.559-1.168 1.742-2.46 3.367-3.824 4.703-1.957-3.637-2.852-6.262-2.852-6.262Zm-8.742-54.277c-.398 3.66-.61 7.34-.633 11.023A108.352 108.352 0 0 0 95.61 243.93h26.813c-3.336-4.793-4.77-9.075-4.77-9.075 3.336 1.313 9.887 1.747 9.887 1.747-6.168-5.692-10.785-17.993-10.785-17.993h7.055c-6.93-6.32-10.528-16.297-10.528-16.297l3.856.727c-3.985-5.984-7.832-14.152-7.832-14.152s-3.848 8.175-7.828 14.152l3.851-.726s-3.59 9.976-10.527 16.296h7.058s-1.734 4.606-4.488 9.48c-5.855-7.73-9.93-18.523-9.93-18.523h8.883c-8.722-7.953-13.246-20.507-13.246-20.507l4.844.918c-3.156-4.758-6.246-10.59-8.098-14.258ZM274.05 234.855s1.403 4.168 4.641 8.88c1.973-2.512 3.536-5 4.727-7.169-1.262-.105-6.434-.562-9.367-1.71Zm12.384-4.859c-1.809.711-4.352 1.207-6.676 1.559 1.168 1.742 2.46 3.367 3.824 4.703 1.957-3.637 2.852-6.262 2.852-6.262Zm8.75-54.277c.398 3.66.609 7.34.632 11.023a108.281 108.281 0 0 1-16.418 57.188h-26.812c3.336-4.793 4.77-9.075 4.77-9.075-3.34 1.313-9.887 1.747-9.887 1.747 6.16-5.692 10.785-17.993 10.785-17.993h-7.055c6.93-6.32 10.52-16.297 10.52-16.297l-3.848.727c3.977-5.984 7.832-14.152 7.832-14.152s3.848 8.175 7.828 14.152l-3.855-.726s3.594 9.976 10.531 16.296h-7.066s1.734 4.606 4.488 9.48c5.855-7.73 9.93-18.523 9.93-18.523h-8.883c8.722-7.953 13.246-20.507 13.246-20.507l-4.844.918c3.156-4.758 6.246-10.59 8.106-14.258Zm0 0"/><path fill="#ede8d6" d="M187.5 78.426a108.327 108.327 0 0 0-76.59 31.726c-5.746 5.746-10.746 12.082-15.015 18.848 4.785-.594 9.48-.938 13.664-.809 19.382.57 15.96-14.25 37.629-17.671 21.66-3.418 41.046 16.53 66.699 8.55 11.691-3.636 31.656-6.797 49.941-9.156A108.266 108.266 0 0 0 187.5 78.426ZM190.254 146.348c-9.375.547-17.281 1.898-23.688 4.64-15.957 6.84-34.207 9.121-53.586 5.133-7.558-1.555-18.832-.414-29.789 1.543-1.636 5.867-2.804 11.875-3.43 17.984 11.692-3.351 26.094-6.132 36.923-3.851 12.668 2.668 25.449-1.375 37.015-5.2l6.672-5.296 2.043 2.5c4.191-1.262 8.145-2.223 11.781-2.477Zm96.254-3.45c-13.63 3.008-29.567 5.391-44.117 4.672-12.875-.629-24.418-1.27-34.664-1.46l9.699 12.636a577.225 577.225 0 0 1 14.722-.773l1.883-1.551 1.762 1.43c6.148-.165 11.633-.133 15.71.261 8.724.848 24.911-1.918 38.95-4.902a105.761 105.761 0 0 0-3.945-10.313Zm0 0"/><g clip-path="url(#a)"><path fill="#229ebd" d="m235.04 106.3-14.306-3.007-5.629-13.488-7.277 12.672-14.566 1.187 5.558 6.148-1.187.376a280.782 280.782 0 0 0-8.941 3.04 320.045 320.045 0 0 0-11.75 4.467c-7.774 3.13-15.43 6.551-22.91 10.336a244.02 244.02 0 0 0-11.063 6 186.837 186.837 0 0 0-10.676 6.688c-3.477 2.363-6.863 4.867-10.113 7.554a102.25 102.25 0 0 0-4.754 4.172 88.126 88.126 0 0 0-4.473 4.489c-2.871 3.109-5.512 6.449-7.738 10.07a48.34 48.34 0 0 0-2.98 5.644 41.045 41.045 0 0 0-2.153 6.02 36.257 36.257 0 0 0-1.129 6.297 35.59 35.59 0 0 0 .012 6.387c.2 2.12.574 4.21 1.125 6.27a42.746 42.746 0 0 0 2.09 5.983c.843 1.93 1.804 3.801 2.879 5.618l.402.675.203.34.215.328.844 1.329 1.113 1.62c.074.106.156.212.23.317l.465.633.465.637.117.156.121.156.239.309.965 1.238 1 1.207.25.3c.082.102.167.204.253.302l.516.59c1.36 1.585 2.805 3.093 4.27 4.581 2.949 2.95 6.066 5.727 9.289 8.36a169.165 169.165 0 0 0 9.972 7.504 168.268 168.268 0 0 1-9.758-7.762c-3.144-2.715-6.171-5.559-9.023-8.566-1.414-1.52-2.809-3.055-4.113-4.66l-.492-.598c-.086-.098-.16-.2-.243-.301l-.238-.305-.957-1.218-.918-1.247-.23-.312-.118-.156-.109-.16-.883-1.274c-.07-.105-.148-.21-.215-.32l-1.054-1.621-.797-1.325-.2-.332-.562-1.007a50.304 50.304 0 0 1-2.66-5.555 40.743 40.743 0 0 1-1.867-5.836 35.672 35.672 0 0 1-.914-6.023 33.874 33.874 0 0 1 .148-6.07 34.186 34.186 0 0 1 1.235-5.938 38.724 38.724 0 0 1 2.195-5.66 45.868 45.868 0 0 1 2.988-5.301c2.219-3.41 4.84-6.559 7.695-9.485a81.063 81.063 0 0 1 4.446-4.226 108.653 108.653 0 0 1 4.726-3.934c3.23-2.523 6.606-4.879 10.067-7.101a174.47 174.47 0 0 1 10.636-6.27 214.723 214.723 0 0 1 11.032-5.597c7.457-3.532 15.09-6.7 22.828-9.579 3.87-1.437 7.765-2.8 11.687-4.086a286.728 286.728 0 0 1 8.856-2.75l1.476-.425.739-.203.722-.2.051-.011.055-.016c.183-.055.36-.129.527-.223l.316.352-1.062 4.484a320.836 320.836 0 0 0-10.879 3.387 333.157 333.157 0 0 0-17.516 6.328c-5.777 2.281-11.484 4.738-17.085 7.422-5.602 2.684-11.094 5.59-16.41 8.816-1.329.809-2.641 1.633-3.946 2.48a117.371 117.371 0 0 0-7.613 5.388c-.617.468-1.227.957-1.832 1.441l-.903.738c-.3.246-.597.5-.894.75a84.871 84.871 0 0 0-3.477 3.117 64.175 64.175 0 0 0-3.277 3.325c-2.11 2.289-4.066 4.73-5.762 7.347-1.691 2.618-3.12 5.41-4.152 8.352a32.838 32.838 0 0 0-1.234 4.504 30.384 30.384 0 0 0-.391 9.289 32.95 32.95 0 0 0 .84 4.574l.152.563c.05.187.094.375.156.558l.34 1.113.383 1.098.047.137.055.137.105.27.211.542a45.09 45.09 0 0 0 1.941 4.211 45.506 45.506 0 0 1-1.867-4.242l-.199-.547-.098-.27-.05-.136-.047-.137-.36-1.102-.32-1.113c-.059-.183-.098-.375-.148-.558l-.137-.563a32.784 32.784 0 0 1-.754-4.562 29.923 29.923 0 0 1 .55-9.176 32.163 32.163 0 0 1 1.298-4.418c1.066-2.883 2.527-5.61 4.238-8.156 1.715-2.547 3.691-4.922 5.812-7.145a69.37 69.37 0 0 1 3.297-3.223 80.137 80.137 0 0 1 3.489-3.02c.3-.241.593-.487.898-.726l.906-.715c.61-.468 1.219-.937 1.84-1.39a119.256 119.256 0 0 1 7.633-5.195 145.369 145.369 0 0 1 3.953-2.387c5.324-3.106 10.832-5.89 16.437-8.453 5.61-2.567 11.32-4.903 17.098-7.063a320.67 320.67 0 0 1 17.508-5.973 334.265 334.265 0 0 1 8.871-2.617l.621-.172-1.637 6.91 13.336-5.972 12.485 7.601-1.559-14.53Zm0 0"/></g><path fill="#229ebd" d="M114.133 113.625h1.797c.37 0 .73.066 1.074.2a4.63 4.63 0 0 1 1.633 1.062 4.63 4.63 0 0 1 1.062 1.633c.133.343.2.703.2 1.074v1.793c-.004.074.035.117.109.129.09.007.137-.032.137-.125v-1.797c-.004-.371.062-.73.195-1.074a4.695 4.695 0 0 1 1.066-1.633 4.65 4.65 0 0 1 1.63-1.063 2.96 2.96 0 0 1 1.073-.199h1.801c.09 0 .13-.043.121-.133-.008-.078-.05-.113-.129-.113h-1.789c-.39 0-.77-.07-1.133-.219a4.62 4.62 0 0 1-1.593-1.062c-.461-.465-.809-1-1.047-1.61a2.897 2.897 0 0 1-.195-1.078v-1.793c0-.074-.036-.117-.114-.125-.09-.012-.133.031-.133.121v1.797c0 .371-.066.73-.199 1.078a4.65 4.65 0 0 1-1.062 1.63 4.695 4.695 0 0 1-1.633 1.066 2.957 2.957 0 0 1-1.074.195h-1.793c-.078 0-.121.035-.13.11-.007.093.032.136.126.136ZM126.414 174.828c.102.008.152-.035.152-.137v-1.976a3.2 3.2 0 0 1 .211-1.18 5.191 5.191 0 0 1 1.172-1.789 5.191 5.191 0 0 1 1.79-1.172 3.2 3.2 0 0 1 1.179-.21h1.977c.101 0 .144-.052.132-.153-.007-.082-.054-.121-.14-.121h-1.961c-.434 0-.848-.078-1.246-.238a5.163 5.163 0 0 1-1.754-1.172 5.061 5.061 0 0 1-1.145-1.77 3.183 3.183 0 0 1-.215-1.176v-1.972c0-.082-.039-.13-.12-.14-.102-.009-.15.034-.15.136v1.976c0 .407-.07.797-.214 1.176a5.17 5.17 0 0 1-1.172 1.793 5.09 5.09 0 0 1-1.789 1.168 3.126 3.126 0 0 1-1.18.215h-1.976c-.082 0-.13.039-.14.125-.009.098.034.148.136.148h1.977c.406-.004.796.07 1.175.215.68.262 1.278.653 1.793 1.168a5.106 5.106 0 0 1 1.168 1.793c.145.38.219.774.215 1.18v1.969c0 .086.043.132.125.144Zm0 0"/><g clip-path="url(#b)"><path fill="#229ebd" d="M110.07 140.574a142.169 142.169 0 0 1 9.668-8.125c6.672-5.144 13.703-9.812 20.918-14.16 7.215-4.352 14.625-8.383 22.156-12.152l.008-.004.028-.012c.09-.05.175-.11.254-.18l-.024 5.032 5.027-3.817 5.993 1.977-2.078-5.957 3.734-5.09-6.309.133-3.687-5.121-1.82 6.039-6.012 1.925 3.789 2.633c-.047.02-.09.04-.133.063-7.488 4-14.836 8.254-21.988 12.824-7.153 4.57-14.102 9.457-20.688 14.816a143.715 143.715 0 0 0-9.527 8.45c-3.043 2.96-5.93 6.082-8.563 9.418a70.07 70.07 0 0 0-3.714 5.172 54.313 54.313 0 0 0-3.149 5.527l-.176.355c-.058.121-.109.243-.168.364l-.328.722c-.113.239-.215.485-.316.73l-.305.735c-.101.246-.191.496-.285.742l-.14.371c-.047.125-.098.246-.137.375l-.254.75-.13.375c-.042.125-.077.254-.116.38a32.717 32.717 0 0 0-1.278 6.21 32.294 32.294 0 0 1 1.438-6.16c.043-.125.078-.254.125-.375l.41-1.113c.043-.125.098-.246.144-.367l.153-.368c.101-.242.195-.488.3-.73l.325-.719c.11-.242.215-.484.332-.719l.348-.707c.058-.12.117-.238.175-.355l.188-.348a52.64 52.64 0 0 1 3.265-5.402 68.795 68.795 0 0 1 3.817-5.024c2.691-3.238 5.64-6.253 8.73-9.113Zm0 0"/></g></svg>